<?xml version="1.0" encoding="utf-8"?>
<!-- Generator: Adobe Illustrator 27.5.0, SVG Export Plug-In . SVG Version: 6.00 Build 0)  -->
<svg version="1.1" id="Layer_1" xmlns="http://www.w3.org/2000/svg" xmlns:xlink="http://www.w3.org/1999/xlink" x="0px" y="0px"
	 viewBox="0 0 411.714 299.347" style="enable-background:new 0 0 411.714 299.347;" xml:space="preserve">
<g>
	<g>
		<g>
			<path style="fill:#D4F2FF;" d="M313.331,103.09H205.267c-12.027,0-21.777-9.75-21.777-21.777v0
				c0-12.027,9.75-21.777,21.777-21.777h108.064c12.027,0,21.777,9.75,21.777,21.777v0C335.108,93.34,325.358,103.09,313.331,103.09
				z"/>
			<path style="fill:#D4F2FF;" d="M326.987,176.442H116.356c-12.027,0-21.777-9.75-21.777-21.777v0
				c0-12.027,9.75-21.777,21.777-21.777h210.631c12.027,0,21.777,9.75,21.777,21.777v0
				C348.763,166.693,339.014,176.442,326.987,176.442z"/>
			<path style="fill:#D4F2FF;" d="M379.644,251.861H39.522c-12.027,0-21.777-9.75-21.777-21.777v0
				c0-12.027,9.75-21.777,21.777-21.777h340.122c12.027,0,21.777,9.75,21.777,21.777v0
				C401.421,242.111,391.671,251.861,379.644,251.861z"/>
			<path style="fill:#D4F2FF;" d="M339.248,127.82H55.744c-5.255,0-9.516-4.26-9.516-9.516v-0.147c0-5.255,4.26-9.516,9.516-9.516
				h283.504c5.255,0,9.516,4.26,9.516,9.516v0.147C348.763,123.56,344.503,127.82,339.248,127.82z"/>
			<path style="fill:#D4F2FF;" d="M251.708,52.996h-71.684c-5.255,0-9.516-4.26-9.516-9.516v-0.147c0-5.255,4.26-9.516,9.516-9.516
				h71.684c5.255,0,9.516,4.26,9.516,9.516v0.147C261.224,48.736,256.964,52.996,251.708,52.996z"/>
			<path style="fill:#D4F2FF;" d="M358.946,203.833H168.077c-6.632,0-12.008-5.376-12.008-12.007l0,0
				c0-6.632,5.376-12.008,12.008-12.008h190.869c6.632,0,12.008,5.376,12.008,12.008l0,0
				C370.954,198.457,365.578,203.833,358.946,203.833z"/>
			<path style="fill:#D4F2FF;" d="M139.424,203.833H49.733c-6.632,0-12.007-5.376-12.007-12.007l0,0
				c0-6.632,5.376-12.008,12.007-12.008h89.691c6.632,0,12.008,5.376,12.008,12.008l0,0
				C151.432,198.457,146.056,203.833,139.424,203.833z"/>
			
				<ellipse transform="matrix(0.7071 -0.7071 0.7071 0.7071 22.1489 289.9345)" style="fill:#D4F2FF;" cx="361.056" cy="118.231" rx="9.897" ry="9.897"/>
			
				<ellipse transform="matrix(0.2298 -0.9732 0.9732 0.2298 165.0196 243.2733)" style="fill:#D4F2FF;" cx="236.204" cy="17.381" rx="9.897" ry="9.897"/>
			
				<ellipse transform="matrix(0.9985 -0.0553 0.0553 0.9985 -4.2649 8.4987)" style="fill:#D4F2FF;" cx="151.432" cy="81.313" rx="21.965" ry="21.965"/>
			<circle style="fill:#D4F2FF;" cx="70.673" cy="155.44" r="10.982"/>
			<circle style="fill:#D4F2FF;" cx="280.41" cy="43.407" r="10.982"/>
		</g>
	</g>
	<g>
		<ellipse style="fill:#4583A7;" cx="205.188" cy="272.873" rx="194.895" ry="18.991"/>
		<ellipse style="fill:#2F5E78;" cx="205.836" cy="270.957" rx="155.041" ry="13.014"/>
	</g>
	<g>
		<g>
			<path style="fill:#442D1E;" d="M190.55,253.394l-1.825-64.589h5.703l-1.825,64.589c0,0.269-0.31,0.488-0.691,0.488h-0.671
				C190.859,253.882,190.55,253.663,190.55,253.394z"/>
			<path style="fill:#442D1E;" d="M233.609,256.061l-1.825-64.589h5.703l-1.825,64.589c0,0.269-0.309,0.488-0.691,0.488H234.3
				C233.919,256.548,233.609,256.33,233.609,256.061z"/>
			<path style="fill:#553C2A;" d="M157.21,257.264l-1.964-68.75h6.138l-1.964,68.75c0,0.29-0.333,0.525-0.744,0.525h-0.722
				C157.543,257.789,157.21,257.554,157.21,257.264z"/>
			<path style="fill:#553C2A;" d="M201.549,265.378l-1.964-68.75h6.138l-1.964,68.75c0,0.29-0.333,0.525-0.744,0.525h-0.722
				C201.882,265.903,201.549,265.668,201.549,265.378z"/>
		</g>
		<g>
			<g>
				<path style="fill:#2A4047;" d="M157.59,198.253c0,0-6.106-7.837,6.269-10.401c12.376-2.564,26.316,3.462,35.647-7.31
					c9.332-10.772,9.55-52.034,17.078-56.712c5.646-3.508,21.292-5.65,30.586-3.792c3.098,0.62,8.33,2.437,8.464,3.792
					c0.535,5.421-2.991,63.443-19.02,72.419C220.587,205.225,157.59,198.253,157.59,198.253z"/>
			</g>
			<g>
				<path style="fill:#445E68;" d="M153.479,200.677c-3.23-1.648-7.135-10.261,5.241-12.825c12.376-2.564,26.316,3.462,35.647-7.31
					c9.332-10.772,9.55-52.034,17.078-56.712c7.528-4.677,38.514-5.421,39.05,0c0.535,5.421-2.991,63.443-19.019,72.419
					C215.448,205.225,162.425,205.24,153.479,200.677z"/>
			</g>
		</g>
	</g>
	<g>
		<g>
			<path style="fill:#EFCAAC;" d="M157.913,172.225c-5.07,20.442-11.018,70.231-11.395,75.622l4.404,1.27
				c0,0,13.499-46.755,21.067-71.158L157.913,172.225z"/>
			<g>
				<path style="fill:#EFCAAC;" d="M151.765,250.152c-0.336-0.984-0.688-1.778-0.385-2.829c0.152-0.527,0.035-0.888-0.567-0.801
					c-0.426,0.061-0.844,0.191-1.256,0.312c-0.516,0.152-1.939-0.903-2.487-0.481c-0.798,0.615-2.351,2.981-3.06,3.695
					c-0.787,0.792-1.639,1.523-2.529,2.197c-1.478,1.12-3.439,2.503-5.126,3.265c-0.67,0.303-1.06,0.546-1.611,1.034
					c-0.551,0.488-0.883,0.779-0.921,1.514c-0.133,2.571,4.079,2.429,5.721,2.277c2.126-0.197,4.15-0.995,5.939-2.143
					c0.882-0.566,1.709-1.216,2.482-1.923c0.727-0.665,1.363-1.645,2.322-1.975c0.355-0.122,0.746-0.172,1.048-0.395
					c0.986-0.727,0.813-2.489,0.507-3.51C151.818,250.311,151.792,250.232,151.765,250.152z"/>
				<path style="fill:#DCC37E;" d="M129.169,258.567c-0.521,0.224-1.045,0.442-1.576,0.648c-0.985,0.381-1.931,1.101-1.904,2.267
					c0.03,1.272,2.025,1.612,2.978,1.85c1.337,0.334,2.724,0.468,4.101,0.41c1.739-0.073,4.653-0.272,6.257-0.949
					c1.633-0.689,2.294-1.611,3.975-2.179c1.457-0.492,2.456-1.183,3.947-1.54c1.209-0.29,2.578-0.55,3.474-1.461
					c0.496-0.504,1.048-0.932,1.284-1.612c0.199-0.575,0.266-1.205,0.316-1.809c0.021-0.255,0.147-3.356-0.099-3.366
					c-0.582,0.253-1.15,0.538-1.699,0.867c-0.962,0.577-1.812,1.3-2.73,1.942c-1.79,1.251-3.816,2.128-5.89,2.753
					c-1.38,0.416-2.845,0.847-4.294,0.832c-0.59-0.006-1.262-0.103-1.695-0.552c-0.36-0.373,0.602-0.686,0.742-1.156
					c-1.096,0.549-2.292,0.947-3.425,1.414C131.661,257.45,130.425,258.027,129.169,258.567z"/>
			</g>
		</g>
		<path style="fill:#F6DFC9;" d="M214.392,101.742c0,0-6.13-0.486-10.449,5.682c-4.32,6.168-19.985,43.148-19.985,43.148
			l13.311,3.589L214.392,101.742z"/>
		<path style="fill:#EFCAAC;" d="M162.465,175.267c-0.886,21.042-1.562,71.426-0.856,76.783l5.18-1.613
			c0,0,8.071-46.94,10.613-72.362L162.465,175.267z"/>
		<path style="fill:#8A3526;" d="M231.895,158.612l-31.024-6.784l-1.868,5.922c0,0-37.947,9.806-43.734,11.429
			c-2.292,0.643-8.116,7.718-14.425,16.323c1.551,0.578,3.035,1.364,4.427,2.321c2.758,1.896,5.164,4.237,7.63,6.485
			c2.561,2.335,5.211,4.531,8.323,6.1c2.848,1.437,13.185,2.419,16.309,2.874c4.319-10.111,8.102-13.712,8.102-13.712
			s33.331,2.57,41.173-5.166C234.648,176.67,231.895,158.612,231.895,158.612z"/>
		<path style="fill:#8A3526;" d="M202.265,162.822c5.299,2.857,11.287,4.395,17.277,4.759c3.388,0.206,6.821,0.106,10.172-0.458
			c0.885-0.149,1.769-0.335,2.644-0.559c0.06-4.516-0.463-7.952-0.463-7.952l-31.024-6.784l-1.868,5.922c0,0-0.928,0.24-2.516,0.651
			C198.035,160.271,200.161,161.688,202.265,162.822z"/>
		<path style="fill:#B7B780;" d="M202.615,161.652c2.6,1.129,5.374,1.796,8.156,2.296c2.921,0.525,5.88,0.892,8.846,1.027
			c4.465,0.205,9.097-0.172,13.285-1.754c0.129-6.669-0.881-9.541-0.395-15.536c0.752-9.269,6.213-37.666,5.232-41.653
			c-0.002-0.004-0.004-0.007-0.006-0.01c-0.925-0.899-1.875-1.772-2.902-2.56c-1.46-1.121-3.059-2.054-4.849-2.522
			c-2.218-0.58-4.542-0.741-6.814-0.801c-1.596-0.043-3.191,0.02-4.786,0.11c-0.816,0.046-1.667,0.056-2.467,0.229
			c-0.801,0.173-1.552,0.537-2.22,1.007c-1.355,0.953-2.395,2.281-3.401,3.578c-1.194,1.54-2.461,3.01-3.73,4.489
			c-1.812,2.111-3.61,4.246-5.267,6.483c-0.954,1.996-1.813,4.042-2.483,5.976c-0.907,2.619,0.398,25.836,0.062,37.481
			C200.021,160.357,201.285,161.074,202.615,161.652z"/>
		<g>
			<path style="fill:#492717;" d="M193.8,93.847c-0.155,1.352-0.886,2.474-1.518,3.642c-0.588,1.087-0.805,2.165-0.707,3.398
				c0.063,0.783,0.154,1.788,0.609,2.494c0.168-0.133,0.338-0.264,0.514-0.388c-0.062-0.384,0.009-0.808,0.078-1.169
				c0.109-0.569,0.27-1.145,0.465-1.689c0.167-0.467,0.404-0.874,0.68-1.252c-0.181,1.027,0.037,2.201,0.306,3.224
				c1.214-0.567,2.53-0.886,3.889-0.929c2-0.063,3.987,0.395,5.898,0.938c1.133,0.322,2.25,0.601,3.433,0.642
				c1.005,0.035,2.003-0.082,2.977-0.326c2.107-0.528,3.973-1.607,5.963-2.433c2.164-0.898,4.483-1.025,6.798-0.947
				c2.35,0.079,4.729,0.331,7.027-0.297c0.928-0.254,1.824-0.608,2.696-1.022c-0.82-0.768-1.627-1.591-2.044-2.643
				c-0.278-0.703-0.326-1.421-0.303-2.146c0.339,0.559,0.795,1.064,1.298,1.543c0.836,0.795,1.76,1.611,2.123,2.7
				c0.833-0.451,1.642-0.946,2.427-1.456c0.291-0.189,0.579-0.384,0.865-0.581c-0.091-0.155-0.181-0.309-0.26-0.463
				c-0.194-0.377-0.341-0.78-0.47-1.19c0.372,0.462,0.77,0.908,1.129,1.377c0.809-0.564,1.609-1.138,2.432-1.679
				c-0.036-0.043-0.07-0.087-0.105-0.129c-0.662-0.792-1.377-1.612-1.659-2.628c-0.35-1.263,0.173-2.456,0.448-3.675
				c0.029,0.567-0.066,1.124-0.079,1.72c-0.018,0.776,0.229,1.514,0.648,2.162c0.33,0.509,0.777,0.916,1.14,1.397
				c0.154,0.204,0.305,0.412,0.457,0.618c0.421-0.255,0.849-0.5,1.292-0.723c0.887-0.447,1.781-0.787,2.756-0.979
				c0.908-0.179,1.83-0.28,2.747-0.393c0.078-0.01,0.159-0.02,0.238-0.029c-0.09-0.381-0.104-0.795-0.129-1.155
				c-0.049-0.703-0.178-1.335-0.475-1.98c-0.64-1.389-1.763-2.447-2.729-3.605c-1.111-1.332-1.775-2.823-2.185-4.501
				c-0.396-1.623-0.597-3.306-1.346-4.819c-0.714-1.442-1.81-2.632-2.911-3.787c-1.233-1.293-2.489-2.585-3.494-4.069
				c-1.022-1.508-1.49-3.227-2.042-4.941c-0.469-1.457-1.056-2.872-1.872-4.172c-1.707-2.719-4.249-4.549-7.008-6.094
				c-0.101-0.056-0.285,0.113-0.172,0.18c2.24,1.314,4.357,2.936,5.912,5.032c-2.09-1.474-4.615-1.976-7.209-1.868
				c-1.584,0.066-3.155,0.309-4.712,0.597c-1.581,0.293-3.17,0.58-4.731,0.963c-3.364,0.826-6.621,2.056-9.823,3.366
				c-2.923,1.196-5.823,2.563-8.382,4.433c-1.164,0.851-2.62,1.862-2.753,3.431c-0.032,0.379,0.012,0.758,0.098,1.134
				c-0.002,0.011-0.01,0.021-0.008,0.031c0.25,1.368,1.094,2.51,1.418,3.855c0.359,1.492,0.394,2.913-0.121,4.376
				c-0.78,2.219-2.334,4.122-2.822,6.451c-0.236,1.125-0.114,2.263,0.347,3.315c0.509,1.16,1.298,2.149,1.947,3.229
				C193.5,91.125,193.961,92.447,193.8,93.847z"/>
			<g>
				<g>
					<g>
						<path style="fill:#EFCAAC;" d="M213.65,104.148c-0.861,1.897-3.158,4.56-0.236,6.041c1.985,1.006,4.917-0.145,6.835-0.953
							c2.348-0.989,4.494-2.461,6.248-4.31c0.498-0.525,0.977-1.099,1.195-1.789c0.526-1.661-1.186-2.571-1.384-4.091
							c-0.59-4.533-1.352-9.279-1.226-13.902c0.014-0.496,0.01-1.042,0.178-1.516c-0.087-0.129-0.202-0.243-0.387-0.318
							c-0.585-0.236-1.33-0.093-1.912,0.073c-0.687,0.196-1.34,0.491-2.012,0.731c-1.603,0.574-3.182,1.284-4.637,2.173
							c-1.421,0.868-2.605,1.993-3.833,3.104c-0.407,0.369-0.866,0.686-1.217,1.114c-0.129,0.158-0.291,0.366-0.283,0.583
							c0.011,0.294,0.348,0.455,0.512,0.659c1.09,1.356,1.598,3.501,1.978,5.221c0.424,1.915,0.783,3.882,0.557,5.848
							C213.969,103.315,213.832,103.747,213.65,104.148z"/>
					</g>
				</g>
				<g>
					<g>
						<g>
							<path style="fill:#F6DFC9;" d="M224.369,59.046c-2.935-3.628-7.121-6.276-11.744-7.082c-4.362-0.76-9.047,0.166-12.691,2.721
								c-3.403,2.385-5.469,6.169-6.178,10.216c-0.083,0.476-0.147,0.954-0.198,1.434c-0.126,0.504-0.227,1.016-0.282,1.545
								c-0.272,2.655,0.705,5.207,1.632,7.642c0.506,1.33,0.99,2.678,1.234,4.085c0.247,1.426,0.267,2.863,0.291,4.306
								c0.045,2.634,0.16,5.172,1.541,7.496c2.146,3.61,5.841,6.586,10.02,7.367c4.231,0.791,8.562-0.802,12.119-3.026
								c3.793-2.371,6.978-5.792,8.84-9.879c1.982-4.349,1.904-9.062,1.02-13.678C229.073,67.491,227.412,62.806,224.369,59.046z"/>
							<path style="fill:#492717;" d="M200.528,78.224c-0.195-0.352-0.441-0.691-0.722-0.99c-0.676-0.496-1.484-0.819-2.283-0.885
								c-0.054-0.005-0.104,0.004-0.157,0.003c-0.848,0.206-1.178,1.009-1.362,1.831c0.041-0.072,0.082-0.146,0.129-0.21
								c0.161-0.218,0.255-0.321,0.467-0.39c0.265-0.086,0.564-0.067,0.835-0.017c1.333,0.246,2.59,1.064,3.499,2.05
								c0.062,0.067,0.141,0.054,0.211,0.005C200.97,79.142,200.775,78.669,200.528,78.224z"/>
							<path style="fill:#492717;" d="M216.634,75.004c-1.667-1.335-3.865-1.624-5.816-0.743c-1.694,0.765-2.813,2.333-3.264,4.092
								c0.054-0.037,0.099-0.082,0.123-0.13c0.756-1.54,2.572-2.8,4.222-3.17c1.017-0.229,2.125-0.068,3.115,0.218
								c0.541,0.156,1.08,0.31,1.592,0.547c0.507,0.234,0.974,0.56,1.455,0.842c0.002,0.001,0.005,0.001,0.007,0.002
								C217.702,76.029,217.213,75.467,216.634,75.004z"/>
							<path style="fill:#492717;" d="M231.691,57.867c-3.168-4.508-7.498-7.879-12.946-9.043
								c-4.988-1.065-10.274-0.416-14.929,1.631c-4.221,1.856-8.619,5.033-10.801,9.281c-0.305,0.433-0.586,0.887-0.848,1.361
								c-0.762,1.072-1.369,2.254-1.796,3.462c-1.048,2.961-1.103,6.217-0.394,9.261c0.189,0.81,0.449,1.605,0.755,2.378
								c0.15,0.377,0.278,0.894,0.501,1.303c2.136-0.723,4.269-1.454,6.412-2.154c0.245-0.088,0.493-0.168,0.74-0.25
								c-0.594-1.968-0.305-6.509-0.246-6.144c0.315,1.96,0.964,3.845,1.72,5.68c0.128-0.037,0.255-0.078,0.383-0.115
								c3.438-1.062,6.943-1.985,10.496-2.581c-0.717-1.712-1.284-3.483-1.814-5.261c-0.09-0.3,2.4,3.214,3.116,5.055
								c1.427-0.204,2.86-0.355,4.301-0.431c-1.152-2.58-1.586-3.841-2.776-6.405c-0.151-0.326,3.215,3.504,4.396,6.346
								c0.4-0.006,0.801-0.006,1.203,0c1.295,0.019,2.74-0.078,3.837,0.726c0.887,0.651,1.393,1.693,1.857,2.66
								c0.083,0.172,0.166,0.343,0.249,0.515c1.077,1.714,1.842,3.612,2.392,5.599c0.127,0.46,0.736-0.023,0.669-0.376
								c-0.038-0.204-0.105-0.396-0.15-0.597c-0.136-0.88-0.287-1.763-0.465-2.639c0.311-0.477,0.493-1.19,0.595-1.562
								c0.247-0.905,0.364-1.845,0.484-2.773c0.053-0.412,0.667-0.207,0.9,0.242c0.698,1.346,0.979,2.614,0.998,4.143
								c0.021,1.592-0.118,3.218-0.353,4.792c-0.131,0.874-1.355,4.603-2.042,5.313c-0.069,0.071-0.167,0.298,0.033,0.324
								c1.558,0.201,5.226-2.736,5.926-3.827c1.477-2.297,2.384-4.332,2.773-7.027C237.739,70.667,235.194,62.852,231.691,57.867z"
								/>
							<path style="fill:#F6DFC9;" d="M232.938,73.048c-0.417-0.999-1.381-2.008-2.569-1.814c-1.454,0.237-2.141,1.945-2.398,3.221
								c-0.064,0.318-0.148,0.729-0.197,1.158c-0.165,0.519-0.296,1.052-0.362,1.606c-0.143,1.21-0.007,2.483,0.118,3.693
								c0.096,0.932,0.223,2.319,1.306,2.614c0.989,0.27,1.885-0.472,2.498-1.159c1.434-1.606,1.927-3.662,2.051-5.767
								C233.456,75.414,233.402,74.157,232.938,73.048z"/>
							<path style="fill:#F6DFC9;" d="M232.234,74.166c-0.348-0.457-0.863-0.443-1.309-0.128c-0.596,0.421-0.919,1.134-1.139,1.808
								c-0.234,0.719-0.357,1.475-0.431,2.226c-0.11,1.105-0.013,2.311,0.322,3.373c0.064,0.202,0.316-0.013,0.292-0.164
								c-0.11-0.671-0.214-1.332-0.257-1.999c0.081-0.019,0.16-0.05,0.228-0.084c0.12-0.06,0.232-0.137,0.337-0.22
								c0.224-0.177,0.416-0.396,0.586-0.624c0.326-0.438,0.553-0.929,0.837-1.392c0.064-0.105-0.081-0.17-0.143-0.073
								c-0.266,0.418-0.533,0.841-0.839,1.231c-0.153,0.195-0.32,0.38-0.514,0.535c-0.092,0.073-0.192,0.137-0.298,0.188
								c-0.071,0.035-0.144,0.061-0.215,0.092c-0.008-0.309-0.003-0.62,0.03-0.935c0.085-0.813,0.231-1.645,0.531-2.408
								c0.2-0.508,0.725-1.608,1.443-1.368c0.552,0.185,0.776,0.991,0.794,1.503c0.003,0.082,0.101,0.024,0.106-0.031
								C232.643,75.184,232.552,74.584,232.234,74.166z"/>
						</g>
					</g>
					<path style="fill:#F6DFC9;" d="M204.22,87.943c-0.297-0.17-0.642-0.228-0.953-0.368c-0.356-0.16-0.668-0.403-1.011-0.581
						c0.056-0.143,0.238-0.326,0.303-0.423c0.092-0.137,0.179-0.278,0.254-0.425c0.179-0.345,0.306-0.722,0.382-1.102
						c0.147-0.731,0.131-1.501-0.22-2.172c-0.056-0.107-0.243,0.008-0.201,0.108c0.278,0.655,0.299,1.391,0.152,2.081
						c-0.076,0.357-0.194,0.705-0.344,1.038c-0.081,0.181-0.311,0.792-0.53,0.821c-0.14,0.019-0.352,0.174-0.282,0.343
						c0.288,0.695,1.178,0.943,1.817,1.18c0.23,0.085,0.459,0.164,0.652,0.322c0.242,0.197,0.391,0.476,0.605,0.698
						c0.134,0.139,0.381-0.065,0.338-0.228C205.043,88.711,204.694,88.213,204.22,87.943z"/>
					<g>
						<path style="fill:#492717;" d="M214.27,79.407c0.089,1.103-0.309,2.036-0.889,2.083c-0.58,0.047-1.123-0.81-1.212-1.913
							c-0.089-1.103,0.309-2.036,0.889-2.083C213.638,77.448,214.181,78.304,214.27,79.407z"/>
						<path style="fill:#FFFFFF;" d="M213.898,78.65c0.017,0.216-0.061,0.399-0.174,0.408c-0.114,0.009-0.22-0.159-0.237-0.375
							c-0.017-0.216,0.061-0.399,0.174-0.408C213.774,78.266,213.88,78.434,213.898,78.65z"/>
					</g>
					<g>
						<path style="fill:#492717;" d="M200.912,81.668c0.089,1.103-0.309,2.036-0.889,2.083c-0.58,0.047-1.123-0.81-1.212-1.913
							c-0.089-1.103,0.309-2.036,0.889-2.083C200.281,79.708,200.823,80.565,200.912,81.668z"/>
						<path style="fill:#FFFFFF;" d="M200.54,80.91c0.017,0.216-0.061,0.399-0.174,0.408c-0.114,0.009-0.22-0.159-0.237-0.375
							c-0.017-0.216,0.061-0.399,0.174-0.408C200.416,80.526,200.523,80.694,200.54,80.91z"/>
					</g>
					<path style="fill:#FFFFFF;" d="M205.087,94.752c0.925,0.381,2.127,0.517,3.407,0.246c1.172-0.248,2.254-0.774,2.956-1.496
						c0.934-0.96,1.188-2.08,0.997-3.055c-1.486,0.503-2.974,1.002-4.476,1.466c-1.27,0.392-2.539,0.788-3.809,1.18
						c-0.313,0.096-0.627,0.186-0.941,0.277C203.672,93.928,204.278,94.419,205.087,94.752z"/>
				</g>
			</g>
		</g>
		<g>
			<path style="fill:#E3E2D7;" d="M191.746,126.628l-29.841,8.054l9.788,34.498l29.44-7.946l-6.095-33.688
				C194.043,127.55,191.845,127.458,191.746,126.628z"/>
			
				<rect x="170.601" y="130.172" transform="matrix(0.9655 -0.2606 0.2606 0.9655 -32.1707 53.5434)" style="fill:#5282BD;" width="30.493" height="35.857"/>
			<path style="fill:#456EA0;" d="M163.085,134.363c0,0-1.147,0.103-0.884,0.864c0.339,0.981,4.255-0.463,4.255-0.463l9.343,34.618
				l-3.333,0.899c0,0-1.409,0.188-1.649-0.701l-9.055-33.55l-0.187-0.694c0,0-0.199-0.736,0.57-1.033l28.898-7.8l0.745,0.112
				L163.085,134.363z"/>
			<path style="opacity:0.51;fill:#456EA0;" d="M175.092,169.574l0.708-0.191l-9.343-34.618c0,0-0.28,0.103-0.696,0.235
				L175.092,169.574z"/>
			<path style="fill:#2D4C71;" d="M166.456,134.764l-2.781,0.751c0,0-0.001,0-0.002,0c-0.462,0.067-0.878,0.079-1.154-0.014
				c-0.159-0.053-0.27-0.141-0.318-0.274c-0.232-0.638,0.884-0.864,0.884-0.864l28.704-7.747l-0.745-0.112l-28.898,7.8
				c-0.769,0.297-0.57,1.033-0.57,1.033l0.15,0.556l0.006,0.022l0.006-0.003c0.06,0.083,0.383,0.407,1.696,0.236
				c0.262-0.034,1.434-0.327,3.185-0.785c8.253-2.16,29.421-8.015,29.421-8.015l-0.143-0.528L166.456,134.764z"/>
		</g>
		<g>
			<path style="fill:#F6DFC9;" d="M211.763,152.977c-0.214-0.696-0.5-1.375-0.93-1.967c-0.416-0.572-0.962-1.033-1.563-1.402
				c-0.809-0.497-1.68-0.906-2.518-1.352c-0.859-0.456-1.72-0.908-2.589-1.344c-0.754-0.378-1.517-0.801-2.312-1.087
				c-0.304-0.11-0.619-0.183-0.942-0.156c-0.751-0.117-1.511-0.196-2.267-0.264c-0.998-0.089-2.001-0.152-3.004-0.161
				c-0.832-0.007-1.669,0.015-2.488,0.168c-0.818,0.153-1.539,0.465-2.247,0.893c-0.567,0.343-1.204,0.57-1.733,0.978
				c-0.201,0.155-0.415,0.36-0.443,0.626c-0.025,0.236,0.129,0.421,0.322,0.538c0.216,0.132,0.472,0.214,0.738,0.259
				c1.307,0.054,2.588-0.451,3.84-0.752c0.408-0.098,0.836-0.123,1.254-0.142c0.625-0.028,1.251-0.002,1.872,0.066
				c0.423,0.046,0.842,0.113,1.259,0.194c-0.133,0.016-0.266,0.033-0.398,0.055c-0.647,0.107-1.253,0.356-1.88,0.539
				c-0.615,0.179-1.208,0.345-1.772,0.659c-0.005,0.003-0.01,0.006-0.014,0.009c-0.408,0.137-0.804,0.305-1.185,0.531
				c-0.698,0.415-1.324,0.933-1.916,1.486c-0.225,0.21-0.458,0.409-0.691,0.61c-0.387,0.245-0.769,0.495-1.132,0.77
				c-0.372,0.282-0.777,0.645-0.957,1.087c-0.214,0.525,0.226,0.822,0.693,0.915c0.768,0.152,1.407-0.27,1.975-0.736
				c0.734-0.602,1.507-1.124,2.344-1.573c0.192-0.103,0.388-0.194,0.585-0.278c1.166-0.743,4.448-0.561,4.038-0.468
				c-0.076,0.017-0.151,0.026-0.227,0.044c-0.058,0.013-0.108,0.009-0.153-0.004c-0.873,0.095-1.738,0.251-2.529,0.581
				c-0.059,0.057-0.118,0.113-0.175,0.17c-0.826,0.822-1.741,1.549-2.618,2.316c-0.448,0.393-0.902,0.77-1.361,1.149
				c-0.301,0.249-2.042,1.609-1.035,1.939c0.286,0.093,0.626,0.053,0.916,0.003c0.4-0.069,0.785-0.231,1.139-0.428
				c0.782-0.436,1.455-1.039,2.114-1.639c0.353-0.322,0.698-0.674,1.092-0.946c0.503-0.348,1.105-0.528,1.704-0.622
				c0.951-0.149,1.906-0.139,2.859-0.06c-0.339,0.06-0.678,0.119-1.015,0.189c-1.47,0.302-2.423,1.156-3.544,2.076
				c-0.535,0.438-1.185,0.714-1.702,1.172c-0.309,0.273-0.635,0.732-0.355,1.143c0.206,0.302,0.632,0.273,0.944,0.2
				c1.042-0.245,1.885-0.934,2.793-1.461c1.047-0.608,2.23-0.895,3.384-1.231c1.316-0.383,2.278,0.081,3.518,0.483
				c0.606,0.196,1.221,0.367,1.84,0.517c1.254,0.302,2.546,0.54,3.836,0.615c0.491,0.029,1.003-0.009,1.452-0.226
				c0.345-0.166,0.612-0.417,0.817-0.724C212.257,155.874,212.141,154.208,211.763,152.977z"/>
			<g>
				<g>
					<path style="fill:#F6DFC9;" d="M249.23,146.968c-0.023-1.72-0.326-3.429-0.658-5.122c-0.841-4.288-1.461-8.606-2.347-12.888
						c-1.339-6.47-2.323-14.27-5.979-20.074c-0.958-1.522-2.251-2.993-3.79-3.942c-0.188-0.09-0.378-0.175-0.572-0.249
						c-0.754-0.288-1.504-0.3-2.228,0.036c-0.425,0.197-0.809,0.473-1.173,0.761c-0.434,0.342-0.813,0.747-1.136,1.193
						c-0.663,0.916-1.097,1.975-1.409,3.059c-0.589,2.049-0.813,4.2-0.661,6.343c0.133,1.873,0.496,3.714,0.939,5.542
						c1.425,3.254,2.937,6.482,3.854,9.907c0.627,2.34,1.316,4.667,1.908,7.015c0.555,2.199,1.037,4.415,1.4,6.648
						c0.301,1.85,0.59,3.791,1.499,5.48c0.445,0.827,1.074,1.565,1.895,2.052c0.855,0.507,1.848,0.706,2.824,0.683
						c1.703-0.041,3.501-0.656,4.516-2.035C249.032,150.128,249.251,148.497,249.23,146.968z"/>
					<path style="fill:#F6DFC9;" d="M209.995,156.424c0,0,27.522,1.426,33.982-1.582c6.459-3.008,6.329-9.544,3.24-11.809
						c-3.089-2.265-7.982-2.353-12.71-0.104c-4.728,2.248-25.402,8.001-25.402,8.001L209.995,156.424z"/>
				</g>
			</g>
		</g>
		<g>
			<path style="fill:#EFCAAC;" d="M167.974,252.179c-0.562-0.874-1.093-1.562-1.051-2.654c0.021-0.548-0.178-0.871-0.742-0.642
				c-0.398,0.161-0.774,0.388-1.144,0.604c-0.464,0.27-2.099-0.413-2.53,0.128c-0.628,0.788-1.569,3.457-2.087,4.32
				c-0.574,0.957-1.227,1.871-1.929,2.739c-1.167,1.441-2.74,3.254-4.195,4.397c-0.579,0.455-1.263,1.06-1.681,1.665
				c-0.418,0.605-0.307,0.692-0.169,1.415c0.486,2.528,4.542,1.382,6.1,0.841c2.017-0.7,3.792-1.96,5.253-3.503
				c0.721-0.761,1.368-1.59,1.95-2.462c0.547-0.819,0.929-1.923,1.782-2.473c0.315-0.203,0.683-0.345,0.923-0.634
				c0.783-0.942,0.193-2.612-0.348-3.53C168.064,252.321,168.02,252.25,167.974,252.179z"/>
			<path style="fill:#DCC37E;" d="M148.05,265.758c-0.452,0.342-0.909,0.68-1.376,1.006c-0.865,0.606-1.612,1.531-1.306,2.658
				c0.333,1.228,2.352,1.08,3.334,1.083c1.379,0.004,2.757-0.198,4.08-0.583c1.671-0.487,4.452-1.378,5.848-2.419
				c1.421-1.06,1.841-2.114,3.338-3.068c1.296-0.827,2.101-1.737,3.463-2.44c1.104-0.57,2.372-1.151,3.023-2.25
				c0.361-0.608,0.795-1.155,0.861-1.872c0.056-0.606-0.03-1.234-0.126-1.831c-0.041-0.252-0.661-3.294-0.902-3.244
				c-0.504,0.385-0.988,0.798-1.442,1.248c-0.796,0.791-1.448,1.696-2.186,2.539c-1.438,1.643-3.196,2.98-5.06,4.083
				c-1.24,0.734-2.559,1.504-3.97,1.836c-0.574,0.135-1.25,0.203-1.778-0.13c-0.439-0.276,0.421-0.81,0.443-1.3
				c-0.933,0.795-1.999,1.468-2.987,2.193C150.202,264.078,149.14,264.934,148.05,265.758z"/>
		</g>
	</g>
	<g>
		<g>
			<g>
				<path style="fill:#D8804E;" d="M332.449,207.078c-2.069-8.074,4.187-11.802,4.187-11.802s-11.121-0.055-17.045-0.083
					l-0.001-0.017c-0.063,0-0.742,0.003-1.807,0.008c-1.064-0.005-1.744-0.008-1.807-0.008l-0.001,0.017
					c-5.924,0.029-17.045,0.083-17.045,0.083s6.255,3.728,4.187,11.802c-2.069,8.074-10.897,11.125-9.174,31.221
					c1.723,20.096,13.745,28.171,13.745,28.171h0.053c0,0.331,4.227,0.598,9.441,0.598c0.203,0,0.402-0.001,0.601-0.002
					c0.2,0.001,0.398,0.002,0.601,0.002c5.214,0,9.441-0.268,9.441-0.598h0.053c0,0,12.022-8.074,13.745-28.171
					C343.346,218.203,334.518,215.152,332.449,207.078z"/>
				<ellipse style="fill:#B2B6B6;" cx="317.813" cy="195.176" rx="18.882" ry="1.196"/>
				<g>
					<polygon style="fill:#B29E7A;" points="307.903,253.395 306.336,253.395 306.663,252.122 307.426,252.032 					"/>
					<polygon style="fill:#AFA0AB;" points="312.94,258.848 312.74,258.363 313.176,258.302 313.301,258.526 					"/>
					<polygon style="fill:#C1A280;" points="303.305,259.121 303.009,258.403 303.654,258.312 303.84,258.645 					"/>
					<polygon style="fill:#ADC1BD;" points="314.106,250.729 313.691,249.72 314.597,249.593 314.857,250.06 					"/>
					<polygon style="fill:#EBE9A2;" points="308.514,263.622 308.099,262.614 309.005,262.487 309.265,262.954 					"/>
				</g>
				<g>
					<polygon style="fill:#B29E7A;" points="325.751,258.404 326.947,257.392 327.52,258.574 326.996,259.136 					"/>
					<polygon style="fill:#AFA0AB;" points="318.384,257.497 318.849,257.738 318.556,258.066 318.316,257.975 					"/>
					<polygon style="fill:#C1A280;" points="325.561,251.063 326.25,251.42 325.816,251.906 325.46,251.772 					"/>
					<polygon style="fill:#ADC1BD;" points="322.74,264.447 323.708,264.948 323.099,265.631 322.599,265.442 					"/>
					<polygon style="fill:#EBE9A2;" points="318.676,250.993 319.645,251.495 319.035,252.177 318.535,251.988 					"/>
				</g>
				<g>
					<polygon style="fill:#ADC1BD;" points="336.828,246.6 338.024,245.587 338.597,246.77 338.073,247.331 					"/>
					<polygon style="fill:#AFA0AB;" points="329.461,245.692 329.926,245.933 329.633,246.261 329.393,246.171 					"/>
					<polygon style="fill:#C1A280;" points="336.638,239.258 337.327,239.615 336.893,240.101 336.537,239.967 					"/>
					<polygon style="fill:#DBCA74;" points="333.817,252.642 334.785,253.144 334.176,253.826 333.676,253.637 					"/>
					<polygon style="fill:#EBE9A2;" points="329.753,239.188 330.722,239.69 330.112,240.372 329.612,240.184 					"/>
				</g>
				<g>
					<polygon style="fill:#ADC1BD;" points="304.567,242.366 305.763,241.354 306.336,242.537 305.812,243.098 					"/>
					<polygon style="fill:#AFA0AB;" points="297.2,241.459 297.665,241.7 297.372,242.028 297.132,241.937 					"/>
					<polygon style="fill:#C1A280;" points="304.377,235.025 305.066,235.382 304.633,235.868 304.276,235.734 					"/>
					<polygon style="fill:#DBCA74;" points="301.556,248.409 302.524,248.91 301.915,249.593 301.415,249.404 					"/>
					<polygon style="fill:#EBE9A2;" points="297.492,234.955 298.461,235.457 297.852,236.139 297.351,235.951 					"/>
				</g>
				<g>
					<polygon style="fill:#84B5BC;" points="305.347,222.012 306.912,221.932 306.651,223.22 305.894,223.349 					"/>
					<polygon style="fill:#AFA0AB;" points="300.039,216.823 300.263,217.297 299.832,217.38 299.695,217.162 					"/>
					<polygon style="fill:#C1A280;" points="309.648,216.059 309.98,216.761 309.34,216.885 309.138,216.562 					"/>
					<polygon style="fill:#DBCA74;" points="299.289,224.991 299.755,225.977 298.856,226.15 298.573,225.697 					"/>
					<polygon style="fill:#EBE9A2;" points="304.216,211.829 304.682,212.815 303.783,212.988 303.5,212.535 					"/>
				</g>
				<g>
					<polygon style="fill:#84B5BC;" points="324.07,214.551 322.905,215.599 322.296,214.434 322.803,213.857 					"/>
					<polygon style="fill:#AFA0AB;" points="331.461,215.234 330.989,215.008 331.272,214.671 331.515,214.754 					"/>
					<polygon style="fill:#C1A280;" points="324.483,221.883 323.783,221.547 324.202,221.048 324.562,221.171 					"/>
					<polygon style="fill:#DBCA74;" points="326.897,208.419 325.914,207.948 326.502,207.247 327.007,207.42 					"/>
					<polygon style="fill:#EBE9A2;" points="331.366,221.744 330.383,221.272 330.971,220.571 331.477,220.745 					"/>
				</g>
				<g>
					<polygon style="fill:#84B5BC;" points="317.687,207.073 318.779,205.95 319.464,207.072 318.997,207.681 					"/>
					<polygon style="fill:#AFA0AB;" points="310.266,206.881 310.753,207.076 310.493,207.431 310.245,207.364 					"/>
					<polygon style="fill:#C1A280;" points="316.789,199.785 317.51,200.073 317.125,200.599 316.757,200.5 					"/>
					<polygon style="fill:#DBCA74;" points="315.273,213.378 316.285,213.784 315.745,214.522 315.229,214.383 					"/>
					<polygon style="fill:#EBE9A2;" points="309.93,200.38 310.942,200.785 310.401,201.523 309.885,201.384 					"/>
				</g>
				<g>
					<polygon style="fill:#84B5BC;" points="319.387,238.46 320.952,238.38 320.69,239.668 319.934,239.797 					"/>
					<polygon style="fill:#AFA0AB;" points="314.079,233.271 314.303,233.745 313.871,233.828 313.735,233.61 					"/>
					<polygon style="fill:#C1A280;" points="323.687,232.507 324.019,233.209 323.379,233.333 323.178,233.01 					"/>
					<polygon style="fill:#DBCA74;" points="313.328,241.439 313.794,242.425 312.896,242.598 312.613,242.145 					"/>
					<polygon style="fill:#EBE9A2;" points="318.255,228.277 318.721,229.263 317.823,229.436 317.54,228.983 					"/>
				</g>
				<g>
					<polygon style="fill:#ADC1BD;" points="330.546,232.484 330.647,234.048 329.355,233.804 329.217,233.048 					"/>
					<polygon style="fill:#AFA0AB;" points="335.665,227.109 335.194,227.339 335.105,226.908 335.321,226.769 					"/>
					<polygon style="fill:#C1A280;" points="336.555,236.706 335.858,237.047 335.726,236.409 336.046,236.203 					"/>
					<polygon style="fill:#DBCA74;" points="327.488,226.465 326.508,226.944 326.323,226.048 326.772,225.759 					"/>
					<polygon style="fill:#EBE9A2;" points="340.714,231.219 339.734,231.698 339.549,230.802 339.998,230.513 					"/>
				</g>
			</g>
			<g>
				<g>
					<path style="fill:#6ABBB7;" d="M323.986,114.681c-0.733-0.714-1.274-1.583-1.687-2.516c-0.098-0.276-0.189-0.553-0.276-0.825
						c-0.649-2.027-0.765-4.275-0.238-6.379c0.299-1.19,0.804-2.309,1.506-3.331c0.083-0.121,0.211-0.124,0.319-0.033
						c1.571,1.324,2.459,3.435,2.968,5.385c0.55,2.104,0.615,4.265,0.177,6.42c-0.25,0.848-0.611,1.667-1.089,2.413
						C325.045,115.538,324.478,115.159,323.986,114.681z"/>
					<path style="fill:#6ABBB7;" d="M321.109,122.339c-0.733-0.713-1.274-1.583-1.686-2.516c-0.098-0.276-0.189-0.553-0.276-0.825
						c-0.649-2.027-0.765-4.275-0.238-6.379c0.299-1.19,0.804-2.309,1.506-3.332c0.083-0.121,0.211-0.124,0.319-0.033
						c1.571,1.324,2.459,3.435,2.968,5.385c0.55,2.104,0.615,4.265,0.177,6.42c-0.25,0.848-0.611,1.667-1.089,2.414
						C322.168,123.197,321.601,122.818,321.109,122.339z"/>
					<path style="fill:#6ABBB7;" d="M318.723,129.432c-0.86-0.553-1.564-1.297-2.153-2.13c-0.151-0.251-0.295-0.504-0.435-0.754
						c-1.039-1.857-1.601-4.038-1.502-6.204c0.056-1.226,0.328-2.423,0.813-3.565c0.057-0.135,0.182-0.163,0.306-0.096
						c1.803,0.985,3.093,2.877,3.981,4.687c0.958,1.952,1.451,4.057,1.451,6.256c-0.077,0.881-0.267,1.755-0.587,2.582
						C319.931,130.062,319.3,129.804,318.723,129.432z"/>
					<path style="fill:#6ABBB7;" d="M317.038,136.475c-0.945-0.392-1.769-1-2.497-1.715c-0.193-0.22-0.38-0.444-0.561-0.665
						c-1.352-1.644-2.291-3.69-2.578-5.839c-0.162-1.217-0.107-2.443,0.168-3.652c0.033-0.143,0.15-0.193,0.284-0.148
						c1.949,0.65,3.554,2.284,4.748,3.907c1.289,1.752,2.147,3.736,2.536,5.9c0.081,0.881,0.048,1.775-0.12,2.645
						C318.339,136.881,317.673,136.738,317.038,136.475z"/>
					<path style="fill:#6ABBB7;" d="M315.8,145.505c-1.123-0.441-2.105-1.117-2.976-1.909c-0.231-0.243-0.455-0.49-0.673-0.734
						c-1.621-1.816-2.759-4.065-3.127-6.419c-0.209-1.332-0.159-2.672,0.149-3.99c0.036-0.156,0.175-0.209,0.334-0.158
						c2.314,0.737,4.233,2.545,5.668,4.336c1.548,1.932,2.59,4.113,3.079,6.484c0.107,0.964,0.081,1.941-0.106,2.89
						C317.344,145.967,316.553,145.802,315.8,145.505z"/>
					<path style="fill:#6ABBB7;" d="M315.095,153.106c-1.09-0.287-2.079-0.828-2.981-1.5c-0.243-0.212-0.48-0.428-0.712-0.642
						c-1.72-1.593-3.05-3.686-3.683-5.989c-0.358-1.304-0.48-2.65-0.361-4.011c0.014-0.161,0.135-0.233,0.288-0.204
						c2.224,0.419,4.219,1.963,5.764,3.556c1.667,1.72,2.9,3.757,3.647,6.061c0.219,0.949,0.317,1.93,0.263,2.905
						C316.575,153.355,315.826,153.298,315.095,153.106z"/>
					<path style="fill:#6ABBB7;" d="M314.317,160.798c-1.09-0.287-2.079-0.828-2.98-1.5c-0.243-0.212-0.48-0.428-0.712-0.642
						c-1.72-1.593-3.05-3.686-3.683-5.989c-0.358-1.303-0.48-2.65-0.361-4.011c0.014-0.161,0.135-0.233,0.288-0.204
						c2.224,0.419,4.219,1.963,5.764,3.556c1.668,1.72,2.9,3.757,3.647,6.061c0.219,0.949,0.317,1.93,0.263,2.904
						C315.797,161.047,315.048,160.991,314.317,160.798z"/>
					<path style="fill:#6ABBB7;" d="M314.757,168.864c-1.119-0.132-2.174-0.53-3.16-1.07c-0.27-0.176-0.535-0.357-0.794-0.537
						c-1.925-1.338-3.534-3.225-4.481-5.417c-0.536-1.241-0.845-2.557-0.916-3.921c-0.008-0.162,0.101-0.249,0.257-0.242
						c2.261,0.105,4.451,1.356,6.203,2.719c1.891,1.471,3.395,3.317,4.456,5.494c0.349,0.909,0.582,1.867,0.665,2.84
						C316.257,168.904,315.508,168.953,314.757,168.864z"/>
					<path style="fill:#6ABBB7;" d="M314.396,175.917c-1.119-0.132-2.174-0.53-3.16-1.07c-0.27-0.176-0.535-0.357-0.794-0.537
						c-1.925-1.338-3.533-3.225-4.481-5.417c-0.536-1.241-0.844-2.557-0.916-3.921c-0.008-0.162,0.101-0.25,0.257-0.242
						c2.261,0.105,4.451,1.356,6.203,2.719c1.891,1.471,3.395,3.316,4.456,5.494c0.349,0.909,0.582,1.867,0.665,2.84
						C315.897,175.957,315.147,176.006,314.396,175.917z"/>
					<path style="fill:#6ABBB7;" d="M315.517,185.719c-1.161-0.155-2.259-0.602-3.286-1.205c-0.282-0.196-0.558-0.397-0.828-0.598
						c-2.008-1.489-3.691-3.581-4.692-6.003c-0.567-1.371-0.897-2.823-0.982-4.325c-0.01-0.178,0.103-0.274,0.264-0.265
						c2.345,0.135,4.627,1.531,6.455,3.046c1.973,1.635,3.548,3.68,4.666,6.087c0.37,1.004,0.62,2.06,0.713,3.132
						C317.073,185.775,316.297,185.823,315.517,185.719z"/>
					<path style="fill:#6ABBB7;" d="M333.406,104.411c-4.18,4.357-7.306,9.488-9.619,15.049c-2.388,5.744-3.935,11.816-5.044,17.927
						c-1.082,5.966-1.756,12.003-2.268,18.042c-0.662,7.81-0.643,15.673-0.022,23.485c0.464,5.837,1.257,11.654,2.385,17.403
						c0.3,0.027,0.601,0.05,0.901,0.079c-0.213-1.037-0.417-2.075-0.602-3.119c-0.678-3.83-1.216-7.686-1.606-11.556
						c-0.782-7.763-0.966-15.587-0.485-23.375c0.382-6.182,1.041-12.38,2.013-18.497c0.968-6.095,2.323-12.147,4.414-17.962
						c2.022-5.626,4.8-11.119,8.655-15.723c0.463-0.552,0.952-1.084,1.448-1.605C333.711,104.419,333.539,104.273,333.406,104.411z"
						/>
					<path style="fill:#6ABBB7;" d="M319.968,184.175c1.52-0.219,2.952-0.785,4.287-1.538c0.366-0.243,0.724-0.493,1.074-0.741
						c2.604-1.845,4.77-4.405,6.035-7.344c0.716-1.663,1.121-3.417,1.203-5.226c0.01-0.214-0.141-0.326-0.352-0.311
						c-3.074,0.226-6.039,1.967-8.407,3.839c-2.555,2.02-4.581,4.521-6,7.444c-0.465,1.217-0.772,2.493-0.873,3.784
						C317.928,184.286,318.948,184.321,319.968,184.175z"/>
					<path style="fill:#6ABBB7;" d="M319.42,175.094c1.536,0.024,3.039-0.309,4.476-0.842c0.4-0.182,0.793-0.372,1.178-0.562
						c2.863-1.41,5.407-3.596,7.12-6.298c0.97-1.529,1.646-3.197,2.013-4.97c0.043-0.21-0.087-0.344-0.299-0.363
						c-3.071-0.262-6.274,0.988-8.908,2.462c-2.842,1.591-5.238,3.74-7.101,6.402c-0.651,1.128-1.156,2.34-1.46,3.599
						C317.387,174.881,318.389,175.077,319.42,175.094z"/>
					<path style="fill:#6ABBB7;" d="M318.999,166.355c1.316,0.11,2.62-0.099,3.875-0.487c0.35-0.138,0.696-0.283,1.034-0.429
						c2.514-1.081,4.788-2.866,6.371-5.153c0.896-1.295,1.546-2.729,1.935-4.274c0.046-0.183-0.06-0.309-0.241-0.337
						c-2.623-0.408-5.423,0.513-7.744,1.663c-2.505,1.242-4.649,3.003-6.358,5.247c-0.606,0.959-1.089,2-1.403,3.095
						C317.265,166.05,318.116,166.281,318.999,166.355z"/>
					<path style="fill:#6ABBB7;" d="M319.4,159.869c1.316-0.066,2.58-0.446,3.773-0.999c0.329-0.184,0.653-0.374,0.969-0.564
						c2.353-1.409,4.379-3.485,5.659-5.968c0.724-1.406,1.188-2.918,1.379-4.504c0.023-0.188-0.099-0.299-0.281-0.303
						c-2.647-0.056-5.302,1.231-7.455,2.683c-2.323,1.567-4.225,3.602-5.635,6.06c-0.48,1.034-0.827,2.133-1.001,3.262
						C317.645,159.797,318.516,159.913,319.4,159.869z"/>
					<path style="fill:#6ABBB7;" d="M319.816,151.949c1.316-0.066,2.58-0.446,3.773-0.999c0.329-0.184,0.653-0.374,0.97-0.564
						c2.353-1.409,4.379-3.485,5.659-5.968c0.724-1.406,1.188-2.918,1.379-4.504c0.023-0.188-0.099-0.299-0.281-0.303
						c-2.647-0.056-5.302,1.231-7.455,2.683c-2.323,1.567-4.225,3.602-5.635,6.059c-0.48,1.034-0.827,2.133-1.001,3.262
						C318.061,151.878,318.932,151.993,319.816,151.949z"/>
					<path style="fill:#6ABBB7;" d="M320.931,143.839c1.316-0.066,2.58-0.446,3.773-0.999c0.329-0.184,0.653-0.374,0.969-0.564
						c2.353-1.409,4.379-3.485,5.659-5.968c0.724-1.406,1.188-2.918,1.379-4.504c0.023-0.188-0.099-0.299-0.281-0.303
						c-2.647-0.056-5.302,1.231-7.455,2.683c-2.323,1.567-4.225,3.602-5.635,6.06c-0.479,1.034-0.827,2.133-1.001,3.262
						C319.176,143.767,320.047,143.883,320.931,143.839z"/>
					<path style="fill:#6ABBB7;" d="M321.855,137.748c1.316-0.066,2.58-0.446,3.773-0.999c0.329-0.184,0.653-0.374,0.969-0.564
						c2.353-1.409,4.379-3.485,5.659-5.968c0.724-1.406,1.188-2.918,1.379-4.504c0.023-0.188-0.098-0.299-0.281-0.303
						c-2.647-0.056-5.302,1.231-7.455,2.683c-2.323,1.567-4.225,3.602-5.635,6.059c-0.48,1.034-0.827,2.133-1.001,3.262
						C320.1,137.677,320.971,137.793,321.855,137.748z"/>
					<path style="fill:#6ABBB7;" d="M323.218,131.052c1.316-0.066,2.58-0.446,3.773-0.999c0.329-0.184,0.653-0.374,0.97-0.564
						c2.353-1.409,4.379-3.485,5.659-5.968c0.724-1.406,1.188-2.918,1.379-4.504c0.023-0.188-0.099-0.299-0.281-0.303
						c-2.647-0.057-5.302,1.23-7.455,2.682c-2.323,1.567-4.225,3.602-5.635,6.06c-0.48,1.034-0.828,2.133-1.001,3.262
						C321.464,130.98,322.335,131.096,323.218,131.052z"/>
					<path style="fill:#6ABBB7;" d="M329.337,112.018c0.961-0.644,1.74-1.498,2.389-2.449c0.165-0.286,0.323-0.574,0.476-0.858
						c1.135-2.112,1.725-4.573,1.568-7c-0.089-1.374-0.421-2.709-0.992-3.976c-0.068-0.15-0.209-0.178-0.348-0.099
						c-2.017,1.155-3.435,3.313-4.4,5.366c-1.042,2.216-1.555,4.591-1.509,7.057c0.105,0.986,0.339,1.961,0.717,2.88
						C327.985,112.758,328.692,112.451,329.337,112.018z"/>
					<path style="fill:#6ABBB7;" d="M328.318,115.251c1.022-0.051,2.002-0.346,2.928-0.775c0.256-0.143,0.507-0.29,0.752-0.437
						c1.826-1.093,3.399-2.704,4.392-4.632c0.562-1.091,0.922-2.264,1.07-3.496c0.018-0.146-0.076-0.232-0.218-0.235
						c-2.054-0.044-4.115,0.955-5.785,2.082c-1.803,1.216-3.279,2.796-4.373,4.703c-0.372,0.802-0.642,1.655-0.777,2.531
						C326.956,115.196,327.632,115.286,328.318,115.251z"/>
					<path style="fill:#6ABBB7;" d="M325.608,123.519c1.316-0.066,2.58-0.446,3.773-0.999c0.329-0.184,0.653-0.374,0.969-0.563
						c2.353-1.409,4.379-3.485,5.659-5.968c0.724-1.406,1.188-2.918,1.379-4.504c0.023-0.188-0.098-0.299-0.281-0.303
						c-2.647-0.056-5.302,1.231-7.455,2.683c-2.323,1.567-4.225,3.602-5.635,6.06c-0.48,1.034-0.827,2.132-1.001,3.262
						C323.854,123.448,324.725,123.564,325.608,123.519z"/>
				</g>
				<g>
					<path style="fill:#49A199;" d="M345.443,138.531c-0.401-0.651-0.634-1.38-0.763-2.133c-0.02-0.218-0.036-0.435-0.049-0.649
						c-0.1-1.588,0.227-3.24,0.994-4.668c0.434-0.808,1.005-1.527,1.701-2.14c0.082-0.073,0.175-0.051,0.237,0.035
						c0.897,1.247,1.154,2.94,1.167,4.447c0.014,1.626-0.334,3.204-1.045,4.686c-0.337,0.569-0.748,1.097-1.231,1.551
						C346.054,139.346,345.712,138.968,345.443,138.531z"/>
					<path style="fill:#49A199;" d="M341.957,143.557c-0.401-0.651-0.635-1.38-0.763-2.133c-0.02-0.218-0.036-0.435-0.049-0.649
						c-0.1-1.588,0.227-3.24,0.994-4.668c0.434-0.809,1.005-1.527,1.701-2.14c0.082-0.073,0.175-0.051,0.237,0.035
						c0.897,1.247,1.154,2.94,1.168,4.447c0.014,1.626-0.334,3.204-1.046,4.686c-0.337,0.569-0.748,1.097-1.231,1.551
						C342.568,144.373,342.226,143.994,341.957,143.557z"/>
					<path style="fill:#49A199;" d="M338.93,148.263c-0.523-0.558-0.896-1.227-1.172-1.938c-0.063-0.21-0.122-0.419-0.177-0.626
						c-0.414-1.537-0.422-3.22,0.045-4.772c0.265-0.879,0.681-1.697,1.241-2.436c0.066-0.088,0.162-0.085,0.239-0.013
						c1.127,1.044,1.716,2.652,2.029,4.125c0.337,1.591,0.31,3.207-0.092,4.801c-0.217,0.625-0.515,1.224-0.898,1.765
						C339.691,148.941,339.281,148.638,338.93,148.263z"/>
					<path style="fill:#49A199;" d="M336.421,153.061c-0.613-0.457-1.1-1.048-1.497-1.7c-0.099-0.195-0.194-0.391-0.285-0.585
						c-0.68-1.439-0.986-3.094-0.801-4.705c0.105-0.912,0.369-1.79,0.789-2.617c0.05-0.098,0.144-0.112,0.233-0.055
						c1.294,0.828,2.159,2.305,2.728,3.701c0.614,1.506,0.874,3.101,0.76,4.741c-0.103,0.653-0.29,1.295-0.571,1.896
						C337.29,153.593,336.833,153.368,336.421,153.061z"/>
					<path style="fill:#49A199;" d="M333.872,159.382c-0.733-0.525-1.322-1.195-1.809-1.928c-0.123-0.219-0.24-0.439-0.353-0.656
						c-0.843-1.613-1.257-3.452-1.094-5.225c0.092-1.004,0.373-1.966,0.838-2.865c0.055-0.107,0.165-0.12,0.271-0.054
						c1.543,0.957,2.604,2.619,3.316,4.179c0.769,1.684,1.126,3.455,1.047,5.264c-0.098,0.718-0.296,1.422-0.605,2.076
						C334.907,159.998,334.364,159.734,333.872,159.382z"/>
					<path style="fill:#49A199;" d="M331.971,164.762c-0.737-0.407-1.356-0.98-1.886-1.632c-0.138-0.198-0.27-0.398-0.399-0.596
						c-0.956-1.469-1.537-3.23-1.575-5.015c-0.021-1.01,0.137-2.009,0.472-2.974c0.04-0.114,0.141-0.144,0.246-0.095
						c1.536,0.71,2.699,2.195,3.528,3.632c0.894,1.552,1.415,3.254,1.536,5.061c-0.015,0.728-0.123,1.457-0.341,2.154
						C332.999,165.214,332.466,165.036,331.971,164.762z"/>
					<path style="fill:#49A199;" d="M330,170.197c-0.737-0.407-1.356-0.98-1.887-1.632c-0.137-0.198-0.27-0.398-0.398-0.596
						c-0.956-1.469-1.537-3.23-1.575-5.015c-0.021-1.011,0.137-2.009,0.472-2.974c0.04-0.114,0.141-0.144,0.246-0.095
						c1.536,0.71,2.699,2.194,3.528,3.632c0.894,1.552,1.415,3.254,1.536,5.061c-0.015,0.728-0.123,1.457-0.341,2.154
						C331.028,170.648,330.496,170.471,330,170.197z"/>
					<path style="fill:#49A199;" d="M328.845,176.125c-0.787-0.301-1.48-0.782-2.096-1.354c-0.164-0.177-0.323-0.356-0.478-0.534
						c-1.151-1.322-1.972-2.984-2.258-4.747c-0.162-0.998-0.145-2.008,0.053-3.01c0.023-0.119,0.119-0.162,0.231-0.129
						c1.62,0.49,2.979,1.797,4,3.105c1.102,1.412,1.855,3.025,2.226,4.798c0.087,0.723,0.081,1.46-0.037,2.18
						C329.925,176.429,329.373,176.327,328.845,176.125z"/>
					<path style="fill:#49A199;" d="M327.294,181.173c-0.787-0.301-1.48-0.782-2.096-1.354c-0.164-0.177-0.323-0.356-0.478-0.534
						c-1.151-1.322-1.972-2.984-2.258-4.747c-0.162-0.998-0.145-2.008,0.053-3.01c0.023-0.119,0.119-0.162,0.231-0.129
						c1.62,0.489,2.979,1.797,4,3.105c1.102,1.412,1.855,3.025,2.226,4.798c0.087,0.723,0.081,1.46-0.037,2.18
						C328.374,181.476,327.822,181.374,327.294,181.173z"/>
					<path style="fill:#49A199;" d="M326.314,188.484c-0.814-0.325-1.528-0.849-2.162-1.474c-0.168-0.193-0.332-0.39-0.491-0.585
						c-1.183-1.447-2.021-3.271-2.304-5.21c-0.16-1.097-0.134-2.211,0.079-3.315c0.025-0.131,0.125-0.18,0.24-0.144
						c1.676,0.526,3.074,1.956,4.123,3.388c1.131,1.546,1.899,3.317,2.27,5.266c0.084,0.796,0.072,1.607-0.056,2.401
						C327.432,188.809,326.86,188.702,326.314,188.484z"/>
					<path style="fill:#49A199;" d="M354.15,132.808c-3.827,2.395-7.032,5.543-9.725,9.151c-2.782,3.728-5.013,7.847-6.934,12.074
						c-1.876,4.127-3.468,8.381-4.943,12.665c-1.908,5.541-3.332,11.245-4.31,17.022c-0.695,4.106-1.167,8.253-1.413,12.412
						c0.002,0,0.005,0.001,0.007,0.001c-0.005-0.001-0.004,0-0.007-0.001l0,0c0.005,0.001,0.006,0.001,0.015,0.002
						c0.115,0.012,0.23,0.018,0.346,0.021c0.094,0.003,0.189,0.008,0.283,0.014c0.027-0.515,0.053-1.03,0.09-1.545
						c0.209-2.901,0.523-5.794,0.949-8.671c0.852-5.771,2.149-11.477,3.923-17.035c1.407-4.412,3.019-8.785,4.842-13.042
						c1.817-4.242,3.906-8.381,6.484-12.215c2.495-3.709,5.513-7.184,9.15-9.816c0.436-0.316,0.888-0.612,1.343-0.899
						C354.37,132.869,354.272,132.732,354.15,132.808z"/>
					<path style="fill:#49A199;" d="M329.823,188.178c1.142,0.119,2.283-0.03,3.389-0.332c0.31-0.109,0.615-0.225,0.915-0.341
						c2.225-0.861,4.264-2.322,5.718-4.22c0.823-1.075,1.437-2.273,1.827-3.568c0.046-0.154-0.042-0.262-0.198-0.29
						c-2.27-0.398-4.738,0.322-6.797,1.246c-2.222,0.997-4.148,2.44-5.711,4.299c-0.56,0.797-1.015,1.667-1.325,2.584
						C328.323,187.886,329.057,188.098,329.823,188.178z"/>
					<path style="fill:#49A199;" d="M331.086,181.494c1.109,0.299,2.259,0.332,3.399,0.208c0.323-0.059,0.643-0.125,0.957-0.192
						c2.333-0.499,4.577-1.619,6.314-3.264c0.983-0.931,1.778-2.017,2.368-3.235c0.07-0.144,0-0.266-0.15-0.317
						c-2.178-0.752-4.729-0.431-6.908,0.156c-2.352,0.633-4.481,1.754-6.319,3.343c-0.679,0.699-1.266,1.485-1.717,2.342
						C329.652,180.969,330.342,181.294,331.086,181.494z"/>
					<path style="fill:#49A199;" d="M332.379,175.082c0.934,0.32,1.917,0.408,2.898,0.356c0.279-0.036,0.556-0.078,0.828-0.122
						c2.021-0.324,3.995-1.202,5.561-2.571c0.886-0.775,1.62-1.696,2.184-2.745c0.067-0.124,0.013-0.235-0.113-0.289
						c-1.827-0.775-4.025-0.62-5.918-0.21c-2.043,0.442-3.92,1.327-5.569,2.641c-0.615,0.585-1.155,1.251-1.583,1.987
						C331.177,174.544,331.752,174.867,332.379,175.082z"/>
					<path style="fill:#49A199;" d="M333.855,170.453c0.966,0.193,1.952,0.148,2.918-0.034c0.272-0.073,0.542-0.152,0.806-0.231
						c1.963-0.591,3.812-1.726,5.194-3.292c0.782-0.887,1.395-1.898,1.824-3.013c0.051-0.132-0.017-0.235-0.148-0.271
						c-1.909-0.525-4.069-0.077-5.895,0.582c-1.971,0.711-3.721,1.839-5.193,3.363c-0.537,0.662-0.99,1.395-1.322,2.182
						C332.597,170.08,333.207,170.324,333.855,170.453z"/>
					<path style="fill:#49A199;" d="M335.605,164.787c0.967,0.193,1.952,0.148,2.918-0.034c0.272-0.073,0.542-0.152,0.806-0.231
						c1.963-0.591,3.812-1.726,5.194-3.292c0.782-0.887,1.395-1.898,1.824-3.013c0.051-0.132-0.017-0.235-0.148-0.271
						c-1.909-0.525-4.069-0.077-5.895,0.582c-1.971,0.711-3.721,1.839-5.193,3.363c-0.537,0.662-0.99,1.395-1.322,2.182
						C334.346,164.415,334.957,164.658,335.605,164.787z"/>
					<path style="fill:#49A199;" d="M337.897,159.111c0.966,0.193,1.952,0.148,2.918-0.034c0.272-0.073,0.542-0.152,0.806-0.231
						c1.963-0.591,3.812-1.726,5.194-3.292c0.782-0.887,1.395-1.898,1.824-3.013c0.051-0.132-0.017-0.235-0.148-0.271
						c-1.909-0.525-4.069-0.077-5.895,0.582c-1.971,0.711-3.721,1.839-5.193,3.363c-0.537,0.662-0.99,1.395-1.322,2.182
						C336.638,158.739,337.248,158.982,337.897,159.111z"/>
					<path style="fill:#49A199;" d="M339.68,154.865c0.966,0.193,1.952,0.148,2.918-0.034c0.272-0.073,0.542-0.152,0.806-0.231
						c1.963-0.591,3.812-1.726,5.194-3.292c0.782-0.887,1.395-1.898,1.824-3.013c0.051-0.132-0.017-0.235-0.148-0.271
						c-1.909-0.525-4.069-0.077-5.895,0.582c-1.971,0.711-3.721,1.839-5.193,3.363c-0.537,0.662-0.99,1.395-1.322,2.182
						C338.421,154.492,339.031,154.736,339.68,154.865z"/>
					<path style="fill:#49A199;" d="M341.893,150.26c0.966,0.193,1.952,0.148,2.918-0.034c0.272-0.073,0.542-0.152,0.806-0.231
						c1.963-0.591,3.812-1.726,5.194-3.292c0.782-0.887,1.395-1.898,1.823-3.013c0.051-0.132-0.017-0.235-0.148-0.271
						c-1.909-0.525-4.069-0.077-5.895,0.582c-1.971,0.711-3.721,1.839-5.193,3.363c-0.537,0.662-0.99,1.395-1.322,2.182
						C340.634,149.887,341.244,150.13,341.893,150.26z"/>
					<path style="fill:#49A199;" d="M349.81,137.579c0.814-0.291,1.535-0.768,2.18-1.339c0.172-0.177,0.339-0.357,0.502-0.535
						c1.209-1.324,2.086-3,2.417-4.788c0.187-1.012,0.19-2.041,0.007-3.064c-0.022-0.121-0.119-0.167-0.234-0.135
						c-1.674,0.468-3.096,1.773-4.172,3.086c-1.16,1.416-1.967,3.044-2.384,4.841c-0.104,0.734-0.113,1.484-0.007,2.219
						C348.694,137.868,349.263,137.775,349.81,137.579z"/>
					<path style="fill:#49A199;" d="M348.479,139.737c0.75,0.15,1.515,0.115,2.265-0.026c0.211-0.057,0.42-0.118,0.625-0.18
						c1.524-0.459,2.959-1.339,4.031-2.555c0.607-0.688,1.082-1.473,1.415-2.339c0.039-0.103-0.013-0.182-0.115-0.21
						c-1.481-0.407-3.158-0.06-4.575,0.452c-1.529,0.552-2.888,1.427-4.03,2.61c-0.417,0.514-0.768,1.083-1.026,1.693
						C347.502,139.447,347.976,139.636,348.479,139.737z"/>
					<path style="fill:#49A199;" d="M345.003,145.236c0.966,0.193,1.952,0.148,2.918-0.034c0.272-0.073,0.542-0.152,0.806-0.231
						c1.963-0.591,3.812-1.726,5.194-3.292c0.782-0.887,1.395-1.898,1.823-3.013c0.051-0.132-0.017-0.235-0.148-0.271
						c-1.909-0.525-4.069-0.077-5.895,0.582c-1.971,0.711-3.721,1.839-5.193,3.363c-0.537,0.662-0.99,1.395-1.322,2.182
						C343.744,144.863,344.354,145.106,345.003,145.236z"/>
				</g>
				<g>
					<path style="fill:#49A199;" d="M286.946,125.634c0.536-0.871,0.849-1.846,1.02-2.852c0.027-0.291,0.048-0.582,0.066-0.868
						c0.133-2.124-0.304-4.333-1.329-6.243c-0.581-1.081-1.344-2.043-2.275-2.862c-0.11-0.097-0.235-0.069-0.317,0.046
						c-1.2,1.668-1.544,3.932-1.561,5.947c-0.019,2.175,0.447,4.285,1.398,6.268c0.45,0.761,1,1.467,1.646,2.074
						C286.129,126.725,286.586,126.218,286.946,125.634z"/>
					<path style="fill:#49A199;" d="M291.609,132.357c0.536-0.871,0.849-1.846,1.02-2.852c0.027-0.291,0.048-0.582,0.066-0.868
						c0.133-2.124-0.303-4.333-1.329-6.243c-0.581-1.081-1.344-2.043-2.275-2.862c-0.11-0.097-0.235-0.069-0.317,0.046
						c-1.2,1.668-1.544,3.932-1.561,5.947c-0.019,2.175,0.447,4.286,1.398,6.268c0.45,0.761,1,1.467,1.646,2.074
						C290.792,133.447,291.249,132.941,291.609,132.357z"/>
					<path style="fill:#49A199;" d="M295.657,138.651c0.699-0.747,1.199-1.64,1.567-2.592c0.085-0.28,0.163-0.561,0.237-0.837
						c0.553-2.055,0.565-4.307-0.061-6.383c-0.354-1.175-0.911-2.269-1.66-3.258c-0.089-0.117-0.216-0.114-0.32-0.018
						c-1.508,1.396-2.295,3.546-2.714,5.518c-0.451,2.127-0.415,4.289,0.123,6.421c0.29,0.835,0.688,1.636,1.201,2.36
						C294.639,139.557,295.188,139.152,295.657,138.651z"/>
					<path style="fill:#49A199;" d="M299.013,145.068c0.82-0.611,1.471-1.402,2.002-2.274c0.133-0.261,0.259-0.523,0.382-0.782
						c0.909-1.925,1.319-4.138,1.071-6.293c-0.14-1.219-0.494-2.395-1.056-3.5c-0.067-0.131-0.193-0.15-0.312-0.074
						c-1.731,1.107-2.888,3.084-3.648,4.949c-0.821,2.014-1.168,4.147-1.017,6.341c0.137,0.873,0.387,1.732,0.763,2.535
						C297.851,145.779,298.462,145.478,299.013,145.068z"/>
					<path style="fill:#49A199;" d="M302.422,153.521c0.981-0.702,1.768-1.598,2.419-2.579c0.164-0.293,0.321-0.587,0.473-0.877
						c1.128-2.157,1.681-4.617,1.463-6.989c-0.124-1.343-0.499-2.63-1.12-3.832c-0.074-0.143-0.221-0.16-0.363-0.072
						c-2.063,1.28-3.483,3.503-4.435,5.59c-1.028,2.252-1.505,4.621-1.4,7.04c0.132,0.961,0.396,1.901,0.81,2.776
						C301.038,154.346,301.764,153.992,302.422,153.521z"/>
					<path style="fill:#49A199;" d="M304.965,160.718c0.986-0.545,1.814-1.311,2.523-2.183c0.184-0.265,0.361-0.532,0.533-0.797
						c1.278-1.965,2.056-4.32,2.107-6.708c0.029-1.352-0.182-2.687-0.631-3.977c-0.053-0.153-0.188-0.193-0.329-0.128
						c-2.054,0.95-3.611,2.935-4.719,4.858c-1.196,2.075-1.893,4.352-2.054,6.769c0.02,0.974,0.165,1.949,0.456,2.881
						C303.59,161.321,304.303,161.083,304.965,160.718z"/>
					<path style="fill:#49A199;" d="M307.6,167.986c0.986-0.545,1.814-1.311,2.523-2.183c0.184-0.265,0.361-0.532,0.533-0.797
						c1.278-1.965,2.056-4.32,2.107-6.708c0.029-1.352-0.183-2.687-0.631-3.977c-0.053-0.153-0.188-0.193-0.329-0.128
						c-2.054,0.95-3.611,2.935-4.719,4.858c-1.196,2.075-1.893,4.352-2.054,6.769c0.02,0.974,0.165,1.948,0.456,2.881
						C306.226,168.59,306.938,168.352,307.6,167.986z"/>
					<path style="fill:#49A199;" d="M309.146,175.915c1.052-0.402,1.979-1.046,2.803-1.81c0.219-0.237,0.432-0.477,0.639-0.715
						c1.539-1.768,2.637-3.991,3.02-6.349c0.217-1.334,0.193-2.686-0.071-4.026c-0.031-0.159-0.159-0.217-0.308-0.172
						c-2.166,0.655-3.984,2.404-5.35,4.153c-1.474,1.889-2.481,4.046-2.977,6.417c-0.116,0.967-0.108,1.952,0.05,2.916
						C307.701,176.321,308.44,176.185,309.146,175.915z"/>
					<path style="fill:#49A199;" d="M311.221,182.665c1.052-0.402,1.979-1.046,2.803-1.81c0.219-0.237,0.432-0.477,0.639-0.715
						c1.54-1.768,2.638-3.991,3.02-6.349c0.217-1.334,0.193-2.686-0.071-4.026c-0.031-0.159-0.159-0.217-0.308-0.172
						c-2.167,0.655-3.984,2.403-5.349,4.153c-1.474,1.889-2.481,4.046-2.977,6.417c-0.116,0.967-0.108,1.952,0.05,2.916
						C309.776,183.072,310.514,182.935,311.221,182.665z"/>
					<path style="fill:#49A199;" d="M312.531,192.444c1.088-0.434,2.043-1.136,2.892-1.972c0.225-0.259,0.444-0.522,0.657-0.782
						c1.582-1.935,2.703-4.375,3.082-6.968c0.214-1.468,0.18-2.957-0.105-4.434c-0.034-0.175-0.167-0.24-0.321-0.192
						c-2.241,0.704-4.112,2.616-5.514,4.532c-1.513,2.068-2.54,4.436-3.036,7.043c-0.113,1.064-0.097,2.149,0.074,3.212
						C311.035,192.88,311.8,192.735,312.531,192.444z"/>
					<path style="fill:#49A199;" d="M311.341,196.345c-0.348-3.438-0.805-6.865-1.382-10.271
						c-1.308-7.726-3.212-15.356-5.764-22.767c-1.974-5.731-4.103-11.419-6.612-16.94c-2.569-5.654-5.554-11.163-9.274-16.149
						c-3.602-4.827-7.888-9.037-13.007-12.24c-0.163-0.102-0.294,0.082-0.13,0.185c0.609,0.384,1.213,0.78,1.797,1.203
						c4.863,3.521,8.901,8.168,12.237,13.129c3.449,5.127,6.243,10.664,8.672,16.337c2.438,5.694,4.593,11.542,6.476,17.443
						c2.371,7.434,4.106,15.066,5.246,22.784c0.352,2.386,0.642,4.781,0.882,7.181C310.764,196.303,311.051,196.337,311.341,196.345
						z"/>
					<path style="fill:#49A199;" d="M307.837,192.035c-1.528,0.16-3.054-0.04-4.533-0.443c-0.414-0.146-0.823-0.301-1.223-0.456
						c-2.976-1.152-5.703-3.105-7.648-5.645c-1.101-1.438-1.922-3.04-2.444-4.773c-0.062-0.205,0.057-0.351,0.265-0.387
						c3.036-0.532,6.337,0.43,9.09,1.666c2.972,1.334,5.547,3.263,7.638,5.751c0.748,1.066,1.358,2.229,1.772,3.456
						C309.843,191.644,308.863,191.928,307.837,192.035z"/>
					<path style="fill:#49A199;" d="M306.148,183.096c-1.483,0.399-3.022,0.443-4.546,0.278c-0.432-0.079-0.86-0.167-1.28-0.257
						c-3.121-0.667-6.122-2.165-8.444-4.365c-1.314-1.245-2.378-2.698-3.168-4.327c-0.093-0.193,0-0.355,0.201-0.424
						c2.914-1.005,6.325-0.576,9.239,0.209c3.145,0.847,5.993,2.346,8.451,4.471c0.908,0.935,1.693,1.986,2.296,3.132
						C308.067,182.393,307.144,182.828,306.148,183.096z"/>
					<path style="fill:#49A199;" d="M304.419,174.519c-1.25,0.428-2.564,0.545-3.876,0.476c-0.373-0.048-0.744-0.105-1.108-0.163
						c-2.702-0.434-5.344-1.608-7.438-3.439c-1.185-1.036-2.167-2.269-2.921-3.671c-0.089-0.166-0.017-0.315,0.151-0.386
						c2.444-1.037,5.384-0.829,7.915-0.281c2.732,0.592,5.242,1.775,7.449,3.533c0.822,0.782,1.545,1.673,2.117,2.658
						C306.026,173.8,305.257,174.232,304.419,174.519z"/>
					<path style="fill:#49A199;" d="M302.444,168.329c-1.293,0.258-2.611,0.198-3.903-0.046c-0.364-0.098-0.725-0.203-1.078-0.309
						c-2.626-0.791-5.099-2.308-6.947-4.403c-1.046-1.186-1.866-2.539-2.439-4.03c-0.068-0.177,0.022-0.314,0.198-0.363
						c2.553-0.702,5.442-0.103,7.884,0.778c2.636,0.951,4.977,2.46,6.946,4.497c0.718,0.885,1.324,1.865,1.768,2.918
						C304.128,167.83,303.312,168.156,302.444,168.329z"/>
					<path style="fill:#49A199;" d="M300.104,160.751c-1.293,0.258-2.611,0.198-3.903-0.046c-0.364-0.098-0.725-0.203-1.078-0.309
						c-2.626-0.791-5.098-2.308-6.947-4.403c-1.046-1.186-1.866-2.539-2.439-4.03c-0.068-0.177,0.022-0.314,0.198-0.363
						c2.553-0.702,5.442-0.103,7.884,0.778c2.636,0.951,4.977,2.46,6.946,4.497c0.718,0.885,1.324,1.865,1.768,2.918
						C301.788,160.253,300.972,160.578,300.104,160.751z"/>
					<path style="fill:#49A199;" d="M297.04,153.16c-1.293,0.258-2.611,0.198-3.903-0.046c-0.364-0.098-0.724-0.203-1.078-0.309
						c-2.626-0.791-5.099-2.308-6.947-4.403c-1.046-1.186-1.865-2.539-2.439-4.03c-0.068-0.177,0.022-0.314,0.198-0.363
						c2.553-0.702,5.442-0.103,7.884,0.778c2.636,0.951,4.977,2.46,6.946,4.498c0.718,0.885,1.324,1.865,1.768,2.918
						C298.723,152.661,297.907,152.986,297.04,153.16z"/>
					<path style="fill:#49A199;" d="M294.654,147.48c-1.293,0.258-2.611,0.198-3.903-0.046c-0.364-0.098-0.725-0.203-1.078-0.309
						c-2.626-0.791-5.098-2.308-6.947-4.403c-1.046-1.186-1.866-2.539-2.439-4.03c-0.068-0.177,0.022-0.314,0.198-0.363
						c2.553-0.702,5.442-0.103,7.884,0.778c2.636,0.951,4.977,2.46,6.946,4.497c0.718,0.885,1.324,1.865,1.768,2.918
						C296.338,146.982,295.522,147.307,294.654,147.48z"/>
					<path style="fill:#49A199;" d="M291.695,141.32c-1.293,0.258-2.611,0.198-3.903-0.046c-0.364-0.098-0.724-0.203-1.078-0.309
						c-2.626-0.791-5.099-2.308-6.947-4.403c-1.046-1.186-1.865-2.539-2.439-4.03c-0.068-0.177,0.022-0.314,0.198-0.363
						c2.553-0.702,5.442-0.103,7.884,0.778c2.636,0.951,4.977,2.46,6.946,4.497c0.718,0.885,1.324,1.865,1.768,2.918
						C293.378,140.822,292.562,141.148,291.695,141.32z"/>
					<path style="fill:#49A199;" d="M281.107,124.361c-1.089-0.39-2.054-1.027-2.915-1.79c-0.23-0.237-0.453-0.477-0.671-0.715
						c-1.617-1.77-2.791-4.013-3.232-6.404c-0.25-1.354-0.254-2.73-0.01-4.098c0.029-0.162,0.159-0.224,0.313-0.181
						c2.238,0.626,4.141,2.372,5.579,4.127c1.552,1.894,2.631,4.071,3.189,6.474c0.139,0.982,0.151,1.985,0.009,2.968
						C282.599,124.747,281.837,124.622,281.107,124.361z"/>
					<path style="fill:#49A199;" d="M282.886,127.247c-1.003,0.2-2.026,0.154-3.029-0.035c-0.283-0.076-0.562-0.157-0.836-0.24
						c-2.038-0.614-3.957-1.791-5.391-3.417c-0.812-0.92-1.448-1.97-1.893-3.128c-0.053-0.137,0.017-0.244,0.154-0.281
						c1.981-0.545,4.224-0.08,6.119,0.604c2.046,0.738,3.863,1.909,5.391,3.49c0.557,0.687,1.027,1.448,1.372,2.265
						C284.193,126.86,283.559,127.112,282.886,127.247z"/>
					<path style="fill:#49A199;" d="M287.535,134.601c-1.292,0.258-2.611,0.198-3.903-0.046c-0.364-0.098-0.724-0.203-1.078-0.309
						c-2.626-0.791-5.099-2.308-6.947-4.403c-1.046-1.186-1.866-2.539-2.439-4.03c-0.068-0.177,0.022-0.314,0.198-0.363
						c2.553-0.702,5.442-0.103,7.885,0.778c2.636,0.951,4.977,2.46,6.946,4.497c0.718,0.885,1.324,1.865,1.768,2.918
						C289.219,134.102,288.402,134.428,287.535,134.601z"/>
				</g>
			</g>
		</g>
		<g>
			<g>
				<path style="fill:#D8804E;" d="M285.09,234.689h-13.471l2.539,31.905c0,0.546,4.895,0.989,10.932,0.989
					c6.037,0,10.932-0.443,10.932-0.989l2.539-31.905H285.09z"/>
				<path style="opacity:0.5;fill:#ABAC98;" d="M291.21,234.689c-0.01,0.636-0.02,1.271-0.027,1.907
					c-0.065,6.374,0.022,12.748-0.107,19.122c-0.079,3.915-0.242,7.833-0.572,11.735c3.295-0.17,5.518-0.491,5.518-0.859
					l2.539-31.905H291.21z"/>
				<ellipse style="fill:#54564C;" cx="285.09" cy="234.689" rx="13.471" ry="0.948"/>
			</g>
			<g>
				<path style="fill:#49A199;" d="M258.604,246.395c0.015-0.012,0.027-0.026,0.043-0.038c0.515-0.395,1.168-0.82,1.461-1.421
					c0.12-0.245,0.144-0.524-0.04-0.744c-0.151-0.18-0.368-0.246-0.597-0.206c-0.306,0.054-0.588,0.239-0.84,0.459
					c0.001-0.021,0-0.043,0.001-0.064c0.016-0.688,0.043-1.374,0.077-2.059c0.402-0.561,0.877-1.064,1.43-1.466
					c0.481-0.35,0.971-0.685,1.434-1.059c0.406-0.329,0.902-0.725,1.09-1.233c0.148-0.402-0.089-0.81-0.435-1.028
					c-0.339-0.214-0.742-0.146-1.086,0.016c-0.447,0.211-0.828,0.568-1.167,0.921c-0.398,0.415-0.756,0.869-1.095,1.334
					c0.064-0.733,0.136-1.465,0.228-2.195c0.297-0.553,0.646-1.082,1.074-1.574c0.605-0.695,1.313-1.291,2.051-1.84
					c0.323-0.24,0.647-0.486,0.988-0.701c0.286-0.18,0.579-0.349,0.854-0.548c0.507-0.367,0.912-0.81,0.921-1.469
					c0.005-0.413-0.235-0.724-0.647-0.785c-0.46-0.067-0.948,0.095-1.371,0.26c-0.439,0.17-0.862,0.379-1.265,0.622
					c-0.686,0.413-1.321,0.926-1.857,1.523c0.141-0.681,0.291-1.361,0.459-2.036c0.472-0.725,1.033-1.394,1.674-1.99
					c0.743-0.69,1.57-1.267,2.452-1.765c0.482-0.272,0.975-0.523,1.47-0.771c0.324-0.162,0.669-0.255,1.005-0.386
					c0.612-0.238,1.242-0.585,1.353-1.292c0.07-0.446-0.168-0.79-0.592-0.924c-0.485-0.153-1.043-0.077-1.534,0.01
					c-0.457,0.081-0.917,0.197-1.347,0.372c-0.974,0.397-1.933,0.891-2.791,1.515c0.312-0.76,0.65-1.508,1.024-2.237
					c0.693-0.736,1.478-1.387,2.372-1.916c0.539-0.319,1.102-0.597,1.681-0.834c0.396-0.162,0.782-0.31,1.203-0.381
					c0.878-0.148,1.764-0.241,2.636-0.421c0.433-0.089,0.868-0.194,1.28-0.355c0.314-0.123,0.646-0.275,0.869-0.537
					c0.385-0.454,0.256-1.218-0.257-1.517c-0.607-0.354-1.454-0.216-2.106-0.099c-0.813,0.147-1.609,0.39-2.385,0.668
					c-0.993,0.356-1.903,0.868-2.767,1.452c2.234-2.757,5.274-4.938,8.749-5.785c1.97-0.481,4.211-0.433,5.988,0.638
					c0.939,0.566,1.714,1.442,2.229,2.405c0.272,0.51,0.452,1.056,0.461,1.638c0.007,0.432-0.131,0.838-0.227,1.252
					c1.843-1.096,3.927-1.901,6.084-1.953c2.16-0.052,4.454,0.732,5.907,2.381c1.267,1.437,1.811,3.368,1.995,5.238
					c0.021,0.215,0.036,0.43,0.049,0.646c-0.05,1.08-0.213,2.152-0.47,3.202c-0.452-2.039-1.652-3.888-3.543-4.861
					c-0.873-0.45-1.817-0.814-2.784-0.999c-0.784-0.15-1.768-0.232-2.425,0.32c-0.255,0.215-0.492,0.571-0.458,0.919
					c0.034,0.346,0.332,0.581,0.621,0.729c0.745,0.382,1.599,0.455,2.4,0.661c0.44,0.113,0.875,0.371,1.272,0.628
					c0.484,0.313,0.926,0.687,1.315,1.112c0.757,0.826,1.294,1.836,1.602,2.91c0.275,0.961,0.36,1.962,0.292,2.955
					c-0.479,0.879-1.032,1.717-1.637,2.518c0.021-1.055-0.238-2.149-0.571-3.064c-0.612-1.679-1.659-3.381-3.201-4.351
					c-0.697-0.438-1.506-0.684-2.333-0.598c-0.332,0.034-0.739,0.12-0.897,0.453c-0.14,0.297,0.011,0.637,0.173,0.891
					c0.477,0.75,1.233,1.274,1.817,1.932c0.791,0.891,1.402,1.948,1.768,3.082c0.567,1.756,0.502,3.642-0.221,5.296
					c-0.288,0.241-0.582,0.475-0.881,0.701c-0.866,0.653-1.783,1.226-2.737,1.73c0.361-0.773,0.54-1.627,0.591-2.482
					c0.055-0.907-0.001-1.841-0.244-2.719c-0.176-0.633-0.386-1.261-0.668-1.855c-0.245-0.516-0.585-1.128-1.136-1.367
					c-0.49-0.213-1.109,0.01-1.322,0.508c-0.26,0.605-0.057,1.383,0.095,1.99c0.176,0.705,0.44,1.391,0.587,2.103
					c0.081,0.393,0.047,0.818,0.016,1.214c-0.04,0.5-0.132,0.996-0.271,1.478c-0.301,1.042-0.837,1.981-1.543,2.772
					c-0.999,0.331-2.017,0.606-3.042,0.842c0.62-1.181,0.906-2.556,0.986-3.863c0.029-0.486-0.011-0.973-0.107-1.451
					c-0.085-0.423-0.228-0.978-0.621-1.223c-0.413-0.257-0.94,0.009-1.187,0.376c-0.33,0.489-0.366,1.175-0.405,1.744
					c-0.043,0.634-0.022,1.276-0.094,1.908c-0.039,0.346-0.18,0.681-0.316,0.999c-0.168,0.392-0.369,0.771-0.599,1.13
					c-0.218,0.342-0.463,0.663-0.729,0.965c-1.089,0.165-2.184,0.281-3.28,0.387c0.099-0.163,0.197-0.327,0.29-0.495
					c0.344-0.622,0.602-1.273,0.775-1.962c0.107-0.425,0.194-0.859,0.228-1.296c0.027-0.35,0.048-0.833-0.221-1.105
					c-0.27-0.272-0.709-0.158-0.961,0.079c-0.335,0.314-0.484,0.813-0.601,1.242c-0.131,0.483-0.209,0.979-0.326,1.465
					c-0.135,0.56-0.435,1.086-0.755,1.559c-0.171,0.254-0.364,0.492-0.57,0.717c-0.857,0.083-1.713,0.175-2.566,0.289
					c0.522-0.768,0.979-1.729,0.761-2.668c-0.023-0.1-0.148-0.176-0.248-0.141c-1.192,0.423-1.719,1.755-2.456,2.68
					c-0.15,0.188-0.31,0.363-0.475,0.533c-2.51,0.522-5.221,1.438-6.99,3.347c-0.009-0.071-0.017-0.141-0.022-0.202
					c-0.061-0.757,0.017-1.526,0.082-2.281C258.58,247.13,258.595,246.763,258.604,246.395z"/>
			</g>
			<g>
				<path style="fill:#6ABBB7;" d="M323.466,244.199c-0.019-0.016-0.036-0.034-0.056-0.049c-0.675-0.518-1.529-1.074-1.914-1.862
					c-0.157-0.321-0.189-0.686,0.052-0.974c0.197-0.236,0.482-0.323,0.782-0.27c0.401,0.071,0.77,0.312,1.1,0.601
					c-0.001-0.028,0-0.056-0.001-0.084c-0.02-0.901-0.056-1.799-0.1-2.697c-0.526-0.735-1.149-1.394-1.873-1.92
					c-0.63-0.458-1.273-0.897-1.878-1.387c-0.532-0.431-1.182-0.95-1.427-1.615c-0.194-0.527,0.116-1.061,0.569-1.347
					c0.444-0.28,0.972-0.192,1.422,0.021c0.585,0.276,1.085,0.744,1.528,1.206c0.522,0.544,0.99,1.139,1.434,1.747
					c-0.084-0.96-0.179-1.918-0.299-2.876c-0.388-0.725-0.846-1.417-1.407-2.061c-0.793-0.91-1.72-1.692-2.686-2.411
					c-0.423-0.315-0.848-0.637-1.295-0.918c-0.375-0.236-0.759-0.457-1.118-0.717c-0.664-0.48-1.195-1.061-1.207-1.924
					c-0.007-0.541,0.307-0.949,0.848-1.028c0.602-0.088,1.241,0.125,1.796,0.34c0.575,0.223,1.129,0.496,1.657,0.814
					c0.898,0.541,1.73,1.212,2.432,1.995c-0.185-0.892-0.381-1.782-0.601-2.666c-0.618-0.949-1.354-1.826-2.193-2.606
					c-0.973-0.904-2.057-1.66-3.212-2.312c-0.631-0.356-1.277-0.685-1.925-1.01c-0.424-0.213-0.876-0.334-1.317-0.505
					c-0.801-0.311-1.627-0.766-1.772-1.693c-0.091-0.585,0.22-1.035,0.776-1.211c0.636-0.201,1.367-0.101,2.009,0.013
					c0.598,0.106,1.201,0.258,1.764,0.488c1.276,0.52,2.532,1.167,3.656,1.984c-0.409-0.995-0.851-1.975-1.341-2.931
					c-0.908-0.964-1.936-1.817-3.107-2.51c-0.706-0.417-1.444-0.781-2.202-1.093c-0.518-0.213-1.024-0.406-1.576-0.499
					c-1.15-0.193-2.31-0.315-3.453-0.551c-0.567-0.117-1.137-0.254-1.677-0.465c-0.411-0.161-0.846-0.36-1.138-0.704
					c-0.505-0.595-0.335-1.596,0.336-1.987c0.795-0.464,1.905-0.283,2.759-0.129c1.065,0.192,2.108,0.51,3.125,0.875
					c1.301,0.467,2.492,1.137,3.625,1.903c-2.926-3.611-6.909-6.468-11.46-7.578c-2.581-0.63-5.516-0.568-7.843,0.836
					c-1.23,0.741-2.245,1.889-2.919,3.151c-0.357,0.668-0.593,1.384-0.604,2.146c-0.009,0.566,0.172,1.098,0.297,1.639
					c-2.414-1.436-5.143-2.49-7.97-2.558c-2.83-0.068-5.834,0.959-7.738,3.118c-1.659,1.882-2.372,4.411-2.613,6.861
					c-0.028,0.281-0.047,0.564-0.064,0.846c0.066,1.414,0.279,2.818,0.616,4.194c0.592-2.671,2.163-5.092,4.64-6.368
					c1.144-0.589,2.38-1.067,3.647-1.309c1.028-0.197,2.316-0.304,3.176,0.419c0.335,0.281,0.644,0.749,0.599,1.204
					c-0.045,0.453-0.435,0.761-0.813,0.954c-0.976,0.5-2.095,0.596-3.143,0.866c-0.577,0.148-1.146,0.486-1.666,0.822
					c-0.635,0.409-1.213,0.9-1.723,1.457c-0.992,1.081-1.695,2.405-2.098,3.812c-0.36,1.259-0.472,2.571-0.383,3.87
					c0.628,1.151,1.352,2.25,2.144,3.298c-0.027-1.382,0.312-2.815,0.748-4.014c0.801-2.199,2.173-4.428,4.193-5.699
					c0.913-0.574,1.972-0.896,3.055-0.784c0.435,0.045,0.969,0.157,1.175,0.594c0.184,0.389-0.014,0.834-0.226,1.168
					c-0.625,0.982-1.616,1.669-2.38,2.53c-1.036,1.167-1.836,2.552-2.315,4.037c-0.743,2.301-0.657,4.771,0.289,6.937
					c0.378,0.316,0.763,0.622,1.155,0.918c1.134,0.856,2.335,1.605,3.585,2.266c-0.473-1.013-0.707-2.132-0.774-3.251
					c-0.072-1.188,0.001-2.411,0.32-3.561c0.23-0.829,0.505-1.652,0.875-2.429c0.321-0.675,0.767-1.478,1.488-1.791
					c0.642-0.279,1.452,0.013,1.732,0.665c0.34,0.793,0.074,1.811-0.125,2.606c-0.231,0.924-0.577,1.822-0.769,2.755
					c-0.106,0.514-0.062,1.071-0.02,1.591c0.053,0.655,0.173,1.304,0.355,1.936c0.394,1.365,1.096,2.595,2.021,3.631
					c1.309,0.434,2.642,0.793,3.984,1.102c-0.813-1.546-1.187-3.348-1.291-5.059c-0.039-0.637,0.015-1.275,0.14-1.901
					c0.111-0.555,0.298-1.281,0.813-1.602c0.541-0.337,1.231,0.012,1.555,0.492c0.432,0.64,0.48,1.539,0.531,2.284
					c0.057,0.831,0.029,1.671,0.123,2.499c0.052,0.453,0.235,0.891,0.413,1.308c0.22,0.514,0.484,1.009,0.784,1.48
					c0.286,0.448,0.607,0.869,0.955,1.264c1.427,0.217,2.861,0.369,4.297,0.507c-0.13-0.214-0.259-0.429-0.38-0.648
					c-0.451-0.814-0.788-1.668-1.015-2.57c-0.14-0.556-0.254-1.125-0.299-1.697c-0.036-0.458-0.063-1.091,0.29-1.448
					c0.353-0.357,0.929-0.206,1.259,0.103c0.439,0.411,0.635,1.065,0.787,1.627c0.172,0.633,0.273,1.282,0.427,1.919
					c0.177,0.733,0.57,1.422,0.989,2.043c0.225,0.333,0.477,0.644,0.747,0.939c1.123,0.108,2.244,0.229,3.362,0.378
					c-0.684-1.006-1.283-2.264-0.997-3.495c0.03-0.131,0.194-0.231,0.324-0.184c1.561,0.554,2.251,2.298,3.217,3.51
					c0.196,0.246,0.406,0.476,0.622,0.698c3.288,0.684,6.839,1.883,9.157,4.385c0.012-0.093,0.022-0.184,0.029-0.265
					c0.081-0.992-0.022-1.999-0.108-2.987C323.498,245.162,323.479,244.681,323.466,244.199z"/>
			</g>
			<g>
				<path style="fill:#49A199;" d="M270.935,225.471c0.013-0.014,0.023-0.03,0.036-0.044c0.447-0.471,1.025-0.992,1.221-1.632
					c0.08-0.261,0.06-0.54-0.156-0.728c-0.177-0.154-0.402-0.186-0.622-0.111c-0.294,0.101-0.543,0.327-0.758,0.585
					c-0.003-0.021-0.006-0.042-0.009-0.064c-0.092-0.682-0.173-1.363-0.247-2.046c0.309-0.617,0.7-1.188,1.183-1.671
					c0.42-0.421,0.853-0.828,1.251-1.27c0.35-0.388,0.778-0.857,0.883-1.388c0.083-0.421-0.215-0.786-0.59-0.947
					c-0.368-0.158-0.755-0.029-1.07,0.186c-0.408,0.278-0.729,0.691-1.008,1.092c-0.328,0.472-0.61,0.977-0.872,1.489
					c-0.051-0.734-0.095-1.468-0.118-2.204c0.206-0.593,0.469-1.17,0.814-1.722c0.489-0.781,1.095-1.481,1.738-2.138
					c0.282-0.288,0.563-0.581,0.867-0.847c0.254-0.223,0.518-0.436,0.757-0.674c0.443-0.442,0.774-0.943,0.68-1.595
					c-0.059-0.409-0.345-0.679-0.762-0.674c-0.465,0.005-0.921,0.242-1.313,0.471c-0.407,0.237-0.792,0.509-1.152,0.812
					c-0.612,0.515-1.16,1.121-1.595,1.795c0.033-0.695,0.074-1.389,0.135-2.082c0.352-0.79,0.803-1.539,1.342-2.227
					c0.626-0.798,1.353-1.497,2.146-2.127c0.433-0.344,0.881-0.669,1.331-0.992c0.294-0.211,0.621-0.356,0.933-0.538
					c0.567-0.331,1.135-0.772,1.134-1.488c-0.001-0.452-0.289-0.754-0.729-0.821c-0.504-0.076-1.042,0.088-1.513,0.25
					c-0.439,0.151-0.874,0.338-1.272,0.579c-0.9,0.544-1.77,1.182-2.52,1.932c0.189-0.799,0.406-1.591,0.661-2.37
					c0.569-0.836,1.243-1.601,2.043-2.263c0.482-0.399,0.996-0.762,1.53-1.087c0.365-0.222,0.723-0.428,1.129-0.564
					c0.844-0.283,1.704-0.514,2.538-0.828c0.414-0.156,0.827-0.327,1.209-0.551c0.29-0.17,0.595-0.373,0.774-0.667
					c0.309-0.509,0.062-1.243-0.491-1.458c-0.655-0.255-1.47,0.014-2.096,0.232c-0.78,0.272-1.528,0.637-2.252,1.033
					c-0.926,0.507-1.744,1.155-2.506,1.867c1.775-3.072,4.437-5.702,7.736-7.083c1.871-0.783,4.091-1.087,6.014-0.306
					c1.016,0.412,1.918,1.156,2.578,2.027c0.349,0.461,0.612,0.973,0.712,1.546c0.074,0.426,0.001,0.848-0.028,1.272
					c1.649-1.371,3.581-2.492,5.704-2.881c2.126-0.389,4.514,0.026,6.207,1.427c1.476,1.221,2.316,3.043,2.79,4.861
					c0.054,0.209,0.103,0.419,0.149,0.631c0.119,1.074,0.126,2.158,0.037,3.236c-0.765-1.943-2.239-3.581-4.259-4.247
					c-0.933-0.307-1.922-0.52-2.906-0.552c-0.798-0.026-1.783,0.047-2.345,0.695c-0.219,0.252-0.396,0.641-0.308,0.979
					c0.088,0.337,0.419,0.522,0.727,0.623c0.796,0.261,1.651,0.199,2.473,0.277c0.452,0.043,0.922,0.23,1.355,0.421
					c0.527,0.233,1.022,0.534,1.473,0.893c0.877,0.697,1.565,1.611,2.037,2.624c0.422,0.906,0.663,1.882,0.751,2.873
					c-0.336,0.943-0.751,1.858-1.223,2.743c-0.145-1.045-0.571-2.085-1.044-2.937c-0.867-1.563-2.167-3.079-3.842-3.797
					c-0.757-0.324-1.594-0.44-2.397-0.226c-0.323,0.086-0.712,0.234-0.815,0.588c-0.092,0.316,0.11,0.627,0.31,0.854
					c0.588,0.666,1.417,1.065,2.096,1.624c0.92,0.756,1.689,1.705,2.228,2.768c0.835,1.646,1.065,3.519,0.61,5.265
					c-0.247,0.283-0.501,0.56-0.761,0.83c-0.753,0.781-1.569,1.489-2.432,2.136c0.235-0.82,0.278-1.691,0.195-2.544
					c-0.088-0.905-0.289-1.818-0.667-2.647c-0.273-0.598-0.578-1.185-0.95-1.727c-0.323-0.471-0.755-1.023-1.336-1.173
					c-0.518-0.133-1.093,0.183-1.226,0.708c-0.162,0.639,0.16,1.374,0.405,1.95c0.285,0.669,0.653,1.305,0.909,1.986
					c0.141,0.375,0.175,0.8,0.205,1.197c0.039,0.5,0.025,1.004-0.037,1.502c-0.134,1.076-0.517,2.088-1.09,2.979
					c-0.935,0.483-1.898,0.914-2.872,1.307c0.428-1.263,0.495-2.666,0.369-3.969c-0.047-0.485-0.163-0.96-0.332-1.417
					c-0.15-0.405-0.378-0.93-0.805-1.111c-0.448-0.189-0.926,0.156-1.114,0.557c-0.249,0.534-0.178,1.218-0.128,1.786
					c0.057,0.633,0.178,1.264,0.206,1.899c0.015,0.348-0.071,0.7-0.155,1.036c-0.104,0.414-0.244,0.819-0.415,1.21
					c-0.162,0.372-0.354,0.727-0.569,1.067c-1.05,0.334-2.113,0.62-3.18,0.895c0.072-0.177,0.144-0.354,0.209-0.534
					c0.243-0.668,0.395-1.352,0.459-2.059c0.039-0.436,0.057-0.878,0.022-1.316c-0.028-0.35-0.083-0.83-0.391-1.057
					c-0.309-0.227-0.725-0.045-0.937,0.228c-0.282,0.362-0.351,0.879-0.399,1.321c-0.054,0.498-0.053,0.999-0.093,1.498
					c-0.046,0.574-0.26,1.14-0.502,1.659c-0.13,0.277-0.283,0.542-0.451,0.797c-0.834,0.215-1.665,0.44-2.49,0.686
					c0.396-0.84,0.697-1.861,0.334-2.754c-0.039-0.095-0.174-0.151-0.267-0.1c-1.111,0.604-1.423,2.002-2.007,3.031
					c-0.119,0.209-0.249,0.407-0.385,0.6c-2.398,0.908-4.932,2.237-6.381,4.4c-0.021-0.069-0.039-0.136-0.053-0.196
					c-0.179-0.738-0.222-1.51-0.275-2.265C271.026,226.202,270.983,225.836,270.935,225.471z"/>
			</g>
		</g>
	</g>
	<g>
		<path style="fill:#5F6163;" d="M107.499,164.066v1.637c0,0.791-6.212,1.432-13.874,1.432c-7.662,0-13.874-0.641-13.874-1.432
			v-1.637H107.499z"/>
		<g>
			<ellipse style="fill:#D8804E;" cx="93.625" cy="164.066" rx="13.874" ry="1.432"/>
			<g>
				<path style="fill:#D8804E;" d="M84.01,139.558c0.806-0.134,1.569,0.41,1.704,1.216l3.683,22.066
					c0.021,0.124,0.02,0.245,0.01,0.365h-2.951l-3.663-21.943C82.659,140.456,83.203,139.693,84.01,139.558z"/>
				<path style="fill:#7B7C7F;" d="M83.869,142.78c-0.328-0.066-0.622-0.204-0.887-0.385l-0.189-1.133
					c-0.134-0.806,0.41-1.569,1.216-1.704c0.806-0.134,1.569,0.41,1.704,1.216l0.179,1.075
					C85.416,142.492,84.712,142.949,83.869,142.78z"/>
				<path style="fill:#D8804E;" d="M84.252,142.499c0.491,0,0.971-0.244,1.253-0.689l30.203-47.755
					c0.437-0.691,0.231-1.605-0.46-2.042c-0.692-0.437-1.605-0.231-2.042,0.46l-30.204,47.755c-0.437,0.691-0.231,1.605,0.46,2.042
					C83.708,142.424,83.981,142.499,84.252,142.499z"/>
				<path style="fill:#7B7C7F;" d="M108.551,99.832l4.655-7.36c0.437-0.691,1.351-0.897,2.042-0.46
					c0.691,0.437,0.896,1.352,0.46,2.042l-4.907,7.758C110.072,101.128,109.321,100.469,108.551,99.832z"/>
				<path style="fill:#3E4042;" d="M84.008,141.045c0,0.237,0.192,0.43,0.43,0.43c0.237,0,0.43-0.192,0.43-0.43
					s-0.192-0.43-0.43-0.43C84.2,140.615,84.008,140.807,84.008,141.045z"/>
				<g>
					<path style="fill:#D8804E;" d="M106.656,96.914c-0.017,0.002-0.037,0.007-0.049,0c-0.311-0.185,1.225-3.331,3.429-7.025
						c2.205-3.694,4.243-6.539,4.554-6.354l0.01-0.018l30.302,11.028l-13.967,23.407L106.656,96.914z"/>
					<path style="fill:#8B522E;" d="M130.936,117.953c0.311,0.185,3.689-4.904,7.546-11.368c3.857-6.464,6.732-11.854,6.421-12.039
						c-0.311-0.185-3.689,4.904-7.546,11.368C133.5,112.377,130.625,117.767,130.936,117.953z"/>
				</g>
			</g>
		</g>
	</g>
	<g>
		<g>
			<g>
				<g>
					<g>
						<g>
							<rect x="100.904" y="126.409" style="fill:#2D4C71;" width="6.136" height="38.31"/>
							<rect x="101.403" y="126.409" style="fill:#E3E2D7;" width="5.212" height="2.073"/>
							<rect x="100.904" y="128.718" style="fill:#5282BD;" width="6.136" height="38.309"/>
							<rect x="106.344" y="128.718" style="fill:#5282BD;" width="0.696" height="38.309"/>
						</g>
						<g>
							<rect x="107.04" y="126.409" style="fill:#864E2C;" width="6.136" height="38.31"/>
							<rect x="107.539" y="126.409" style="fill:#E3E2D7;" width="5.212" height="2.073"/>
							<rect x="107.04" y="128.718" style="fill:#B46651;" width="6.136" height="38.309"/>
							<rect x="112.48" y="128.718" style="fill:#9C4E42;" width="0.695" height="38.309"/>
						</g>
						<g>
							<rect x="113.175" y="130.322" style="fill:#18534E;" width="5.545" height="34.618"/>
							<rect x="113.627" y="130.322" style="fill:#E3E2D7;" width="4.71" height="1.874"/>
							<rect x="113.175" y="132.409" style="fill:#49A199;" width="5.545" height="34.618"/>
							<rect x="118.091" y="132.409" style="opacity:0.51;fill:#456EA0;" width="0.628" height="34.618"/>
						</g>
						<g>
							<rect x="118.72" y="129.24" style="fill:#2D4C71;" width="5.708" height="35.639"/>
							<rect x="119.185" y="129.24" style="fill:#E3E2D7;" width="4.849" height="1.929"/>
							<rect x="118.72" y="131.388" style="fill:#5282BD;" width="5.708" height="35.639"/>
							<rect x="123.781" y="131.388" style="fill:#5282BD;" width="0.647" height="35.639"/>
						</g>
						<g>
							<rect x="124.428" y="129.24" style="fill:#864E2C;" width="5.708" height="35.639"/>
							<rect x="124.893" y="129.24" style="fill:#E3E2D7;" width="4.849" height="1.929"/>
							<rect x="124.428" y="131.388" style="fill:#B46651;" width="5.708" height="35.639"/>
							<rect x="129.489" y="131.388" style="fill:#9C4E42;" width="0.647" height="35.639"/>
						</g>
						<g>
							<rect x="130.136" y="132.881" style="fill:#18534E;" width="5.158" height="32.205"/>
							<rect x="130.556" y="132.881" style="fill:#E3E2D7;" width="4.382" height="1.743"/>
							<rect x="130.136" y="134.822" style="fill:#49A199;" width="5.158" height="32.205"/>
							<rect x="134.71" y="134.822" style="opacity:0.51;fill:#456EA0;" width="0.585" height="32.205"/>
						</g>
					</g>
					<g>
						<g>
							<path style="fill:#E2DFCA;" d="M140.008,165.891c0.018,0.695-2.697,1.328-6.063,1.414c-3.366,0.085-6.11-0.409-6.127-1.105
								c-0.018-0.695,2.697-1.328,6.063-1.414C137.247,164.701,139.99,165.195,140.008,165.891z"/>
							<path style="fill:#EDEAD3;" d="M141.874,156.634c0,0,0.726-1.9,3.805-1.425c3.078,0.475,2.876,5.34-0.063,7.417
								c-2.481,1.754-7.256,2.559-7.256,2.559v-1.242c0,0,3.571-0.099,6.09-1.976c2.686-2.002,2.249-4.865,0.684-5.27
								c-2.166-0.561-3.479,2.33-3.479,2.33L141.874,156.634z"/>
							<path style="fill:#E2DFCA;" d="M140.975,163.538c-1.46,0.373-2.616,0.406-2.616,0.406v1.242c0,0,0.846-0.143,2.01-0.439
								C140.578,164.347,140.781,163.945,140.975,163.538z"/>
							<path style="fill:#E2DFCA;" d="M142.838,157.395c0.151-0.658,0.29-1.32,0.382-1.986c-1.043,0.434-1.347,1.225-1.347,1.225
								l-0.219,2.394C141.654,159.027,142.077,158.098,142.838,157.395z"/>
							<path style="fill:#EDEAD3;" d="M142.752,154.382l-9.007-0.117h-0.266l-9.007,0.117c0,0,0.391,6.24,3.633,11.747
								c0.003,0.005,0.005,0.01,0.008,0.015c0,0,0,0,0,0l0,0c0.303,0.501,2.649,0.891,5.499,0.891c2.878,0,5.242-0.397,5.508-0.905
								C142.361,160.622,142.752,154.382,142.752,154.382z"/>
							<ellipse style="fill:#BDBDAC;" cx="133.611" cy="154.382" rx="9.14" ry="0.827"/>
						</g>
					</g>
				</g>
			</g>
		</g>
		<g>
			<g>
				<g>
					<g>
						<g>
							<path style="fill:#825138;" d="M198.891,271.31l-2.5,0.453c-0.599,0.108-1.177-0.275-1.309-0.869l-28.53-97.7
								c-0.14-0.629,0.271-1.248,0.905-1.363l7.098-1.286c0.616-0.112,1.206,0.297,1.318,0.914l23.931,98.533
								C199.917,270.608,199.508,271.198,198.891,271.31z"/>
						</g>
					</g>
				</g>
			</g>
			<g>
				<g>
					<g>
						<g>
							<path style="fill:#A4775A;" d="M147.283,287.242l2.54,0.027c0.609,0.007,1.114-0.469,1.145-1.077l5.422-115.822
								c0.033-0.643-0.476-1.185-1.12-1.192l-7.214-0.077c-0.626-0.007-1.14,0.495-1.146,1.122l-0.748,115.872
								C146.154,286.722,146.656,287.235,147.283,287.242z"/>
						</g>
					</g>
				</g>
			</g>
			<rect x="96.703" y="165.193" style="fill:#72533D;" width="112.017" height="12.061"/>
			<g>
				<rect x="92.299" y="164.661" style="fill:#A4775A;" width="125.062" height="5.277"/>
			</g>
		</g>
		<g>
			<g>
				<g>
					<g>
						<path style="fill:#825138;" d="M110.493,268.701l-2.415-0.789c-0.579-0.189-0.905-0.801-0.739-1.387l23.845-92.815
							c0.175-0.62,0.831-0.969,1.443-0.769l6.857,2.24c0.595,0.195,0.92,0.835,0.726,1.43l-28.288,91.364
							C111.728,268.571,111.088,268.896,110.493,268.701z"/>
					</g>
				</g>
			</g>
		</g>
	</g>
</g>
</svg>
